<svg id="visual" viewBox="0 0 900 600" width="900" height="600" xmlns="http://www.w3.org/2000/svg" xmlns:xlink="http://www.w3.org/1999/xlink" version="1.1"><g stroke-width="1" stroke-linejoin="bevel"><path d="M462 307.9L445 321.9L483 341.7Z" fill="#4f1fe4" stroke="#4f1fe4"></path><path d="M445 321.9L445 340.7L483 341.7Z" fill="#9b8ffb" stroke="#9b8ffb"></path><path d="M445 340.7L475 359L483 341.7Z" fill="#bbb6ff" stroke="#bbb6ff"></path><path d="M483 341.7L495 300.9L462 307.9Z" fill="#8c7bf8" stroke="#8c7bf8"></path><path d="M462 307.9L418 300L445 321.9Z" fill="#aba2fd" stroke="#aba2fd"></path><path d="M445 321.9L418 300L445 340.7Z" fill="#7d67f4" stroke="#7d67f4"></path><path d="M440 260.1L418 300L462 307.9Z" fill="#4f1fe4" stroke="#4f1fe4"></path><path d="M576 305.9L503 277L495 300.9Z" fill="#6e52f0" stroke="#6e52f0"></path><path d="M495 300.9L474 261.3L462 307.9Z" fill="#9b8ffb" stroke="#9b8ffb"></path><path d="M503 277L474 261.3L495 300.9Z" fill="#7d67f4" stroke="#7d67f4"></path><path d="M503 277L485 259.1L474 261.3Z" fill="#4f1fe4" stroke="#4f1fe4"></path><path d="M472 235.3L440 260.1L474 261.3Z" fill="#9b8ffb" stroke="#9b8ffb"></path><path d="M474 261.3L440 260.1L462 307.9Z" fill="#6e52f0" stroke="#6e52f0"></path><path d="M405 396.6L449 404.6L445 340.7Z" fill="#5f3cea" stroke="#5f3cea"></path><path d="M445 340.7L449 404.6L475 359Z" fill="#6e52f0" stroke="#6e52f0"></path><path d="M449 404.6L491 402.9L475 359Z" fill="#8c7bf8" stroke="#8c7bf8"></path><path d="M475 359L491 402.9L483 341.7Z" fill="#4f1fe4" stroke="#4f1fe4"></path><path d="M483 341.7L576 305.9L495 300.9Z" fill="#4f1fe4" stroke="#4f1fe4"></path><path d="M440 260.1L390 305.9L418 300Z" fill="#7d67f4" stroke="#7d67f4"></path><path d="M418 300L390 305.9L445 340.7Z" fill="#7d67f4" stroke="#7d67f4"></path><path d="M390 305.9L405 396.6L445 340.7Z" fill="#8c7bf8" stroke="#8c7bf8"></path><path d="M474 208.1L472 235.3L477 207.4Z" fill="#cbc9ff" stroke="#cbc9ff"></path><path d="M485 259.1L472 235.3L474 261.3Z" fill="#aba2fd" stroke="#aba2fd"></path><path d="M405 396.6L436 428.7L449 404.6Z" fill="#6e52f0" stroke="#6e52f0"></path><path d="M449 404.6L436 428.7L491 402.9Z" fill="#4f1fe4" stroke="#4f1fe4"></path><path d="M595 363.7L576 305.9L483 341.7Z" fill="#aba2fd" stroke="#aba2fd"></path><path d="M503 277L544 218.4L485 259.1Z" fill="#dddcff" stroke="#dddcff"></path><path d="M353 237.1L356 287.1L390 305.9Z" fill="#cbc9ff" stroke="#cbc9ff"></path><path d="M390 305.9L372 401.9L405 396.6Z" fill="#9b8ffb" stroke="#9b8ffb"></path><path d="M343 271.3L356 287.1L353 237.1Z" fill="#5f3cea" stroke="#5f3cea"></path><path d="M329 354.7L372 401.9L390 305.9Z" fill="#4f1fe4" stroke="#4f1fe4"></path><path d="M405 396.6L421 468.4L436 428.7Z" fill="#4f1fe4" stroke="#4f1fe4"></path><path d="M607 315L581 303L576 305.9Z" fill="#9b8ffb" stroke="#9b8ffb"></path><path d="M576 305.9L569 268.1L503 277Z" fill="#dddcff" stroke="#dddcff"></path><path d="M584 293.9L569 268.1L576 305.9Z" fill="#4f1fe4" stroke="#4f1fe4"></path><path d="M477 207.4L472 235.3L544 218.4Z" fill="#6e52f0" stroke="#6e52f0"></path><path d="M472 235.3L474 208.1L440 260.1Z" fill="#7d67f4" stroke="#7d67f4"></path><path d="M544 218.4L472 235.3L485 259.1Z" fill="#efefff" stroke="#efefff"></path><path d="M581 303L584 293.9L576 305.9Z" fill="#4f1fe4" stroke="#4f1fe4"></path><path d="M595 268.3L562 251.1L569 268.1Z" fill="#6e52f0" stroke="#6e52f0"></path><path d="M569 268.1L562 251.1L503 277Z" fill="#cbc9ff" stroke="#cbc9ff"></path><path d="M518 446.4L532 435.7L491 402.9Z" fill="#5f3cea" stroke="#5f3cea"></path><path d="M491 402.9L595 363.7L483 341.7Z" fill="#dddcff" stroke="#dddcff"></path><path d="M493 461.6L518 446.4L491 402.9Z" fill="#bbb6ff" stroke="#bbb6ff"></path><path d="M574 411.4L595 363.7L491 402.9Z" fill="#6e52f0" stroke="#6e52f0"></path><path d="M581 303L607 315L584 293.9Z" fill="#5f3cea" stroke="#5f3cea"></path><path d="M436 428.7L493 461.6L491 402.9Z" fill="#dddcff" stroke="#dddcff"></path><path d="M424 475.3L493 461.6L436 428.7Z" fill="#efefff" stroke="#efefff"></path><path d="M353 237.1L390 305.9L440 260.1Z" fill="#bbb6ff" stroke="#bbb6ff"></path><path d="M324 311L329 354.7L390 305.9Z" fill="#5f3cea" stroke="#5f3cea"></path><path d="M562 251.1L544 218.4L503 277Z" fill="#4f1fe4" stroke="#4f1fe4"></path><path d="M565 428.6L574 411.4L532 435.7Z" fill="#7d67f4" stroke="#7d67f4"></path><path d="M532 435.7L574 411.4L491 402.9Z" fill="#5f3cea" stroke="#5f3cea"></path><path d="M493 461.6L503 460.4L518 446.4Z" fill="#aba2fd" stroke="#aba2fd"></path><path d="M550 479.6L565 428.6L532 435.7Z" fill="#8c7bf8" stroke="#8c7bf8"></path><path d="M324 311L390 305.9L356 287.1Z" fill="#8c7bf8" stroke="#8c7bf8"></path><path d="M550 479.6L532 435.7L518 446.4Z" fill="#9b8ffb" stroke="#9b8ffb"></path><path d="M595 363.7L607 315L576 305.9Z" fill="#cbc9ff" stroke="#cbc9ff"></path><path d="M584 293.9L595 268.3L569 268.1Z" fill="#bbb6ff" stroke="#bbb6ff"></path><path d="M562 251.1L561 203.4L544 218.4Z" fill="#bbb6ff" stroke="#bbb6ff"></path><path d="M343 271.3L324 311L356 287.1Z" fill="#8c7bf8" stroke="#8c7bf8"></path><path d="M607 315L595 268.3L584 293.9Z" fill="#6e52f0" stroke="#6e52f0"></path><path d="M378 208.3L353 237.1L440 260.1Z" fill="#9b8ffb" stroke="#9b8ffb"></path><path d="M295 246.3L306 323L324 311Z" fill="#dddcff" stroke="#dddcff"></path><path d="M424 475.3L358 508.4L430 494.3Z" fill="#5f3cea" stroke="#5f3cea"></path><path d="M372 401.9L421 468.4L405 396.6Z" fill="#bbb6ff" stroke="#bbb6ff"></path><path d="M474 208.1L378 208.3L440 260.1Z" fill="#bbb6ff" stroke="#bbb6ff"></path><path d="M350 184.4L378 208.3L395 140.6Z" fill="#8c7bf8" stroke="#8c7bf8"></path><path d="M323 478.6L421 468.4L372 401.9Z" fill="#9b8ffb" stroke="#9b8ffb"></path><path d="M421 468.4L424 475.3L436 428.7Z" fill="#cbc9ff" stroke="#cbc9ff"></path><path d="M533 513.1L550 479.6L503 460.4Z" fill="#7d67f4" stroke="#7d67f4"></path><path d="M574 411.4L616 369.9L595 363.7Z" fill="#efefff" stroke="#efefff"></path><path d="M595 363.7L616 369.9L607 315Z" fill="#4f1fe4" stroke="#4f1fe4"></path><path d="M626 368.6L616 369.9L639 388.6Z" fill="#dddcff" stroke="#dddcff"></path><path d="M628 220.3L561 203.4L562 251.1Z" fill="#4f1fe4" stroke="#4f1fe4"></path><path d="M544 218.4L520 169.6L477 207.4Z" fill="#8c7bf8" stroke="#8c7bf8"></path><path d="M477 207.4L429 139.4L474 208.1Z" fill="#cbc9ff" stroke="#cbc9ff"></path><path d="M295 246.3L324 311L343 271.3Z" fill="#8c7bf8" stroke="#8c7bf8"></path><path d="M324 311L306 342.9L329 354.7Z" fill="#9b8ffb" stroke="#9b8ffb"></path><path d="M306 323L306 342.9L324 311Z" fill="#bbb6ff" stroke="#bbb6ff"></path><path d="M329 354.7L317 413.4L372 401.9Z" fill="#7d67f4" stroke="#7d67f4"></path><path d="M639 388.6L616 369.9L574 411.4Z" fill="#aba2fd" stroke="#aba2fd"></path><path d="M616 369.9L626 368.6L607 315Z" fill="#7d67f4" stroke="#7d67f4"></path><path d="M607 315L640 313.1L595 268.3Z" fill="#9b8ffb" stroke="#9b8ffb"></path><path d="M306 342.9L306 379.6L329 354.7Z" fill="#efefff" stroke="#efefff"></path><path d="M532 169.6L520 169.6L544 218.4Z" fill="#7d67f4" stroke="#7d67f4"></path><path d="M358 508.4L424 475.3L421 468.4Z" fill="#8c7bf8" stroke="#8c7bf8"></path><path d="M424 475.3L430 494.3L493 461.6Z" fill="#aba2fd" stroke="#aba2fd"></path><path d="M306 379.6L317 413.4L329 354.7Z" fill="#efefff" stroke="#efefff"></path><path d="M503 460.4L550 479.6L518 446.4Z" fill="#9b8ffb" stroke="#9b8ffb"></path><path d="M644 415.4L639 388.6L574 411.4Z" fill="#cbc9ff" stroke="#cbc9ff"></path><path d="M533 513.1L503 460.4L500 527.3Z" fill="#7d67f4" stroke="#7d67f4"></path><path d="M561 203.4L532 169.6L544 218.4Z" fill="#4f1fe4" stroke="#4f1fe4"></path><path d="M626 368.6L640 313.1L607 315Z" fill="#efefff" stroke="#efefff"></path><path d="M595 268.3L628 220.3L562 251.1Z" fill="#aba2fd" stroke="#aba2fd"></path><path d="M644 415.4L574 411.4L565 428.6Z" fill="#aba2fd" stroke="#aba2fd"></path><path d="M626 368.6L705 357L640 313.1Z" fill="#7d67f4" stroke="#7d67f4"></path><path d="M435 548.1L442 511.4L430 494.3Z" fill="#9b8ffb" stroke="#9b8ffb"></path><path d="M430 494.3L442 511.4L493 461.6Z" fill="#efefff" stroke="#efefff"></path><path d="M378 208.3L350 184.4L353 237.1Z" fill="#8c7bf8" stroke="#8c7bf8"></path><path d="M353 237.1L295 246.3L343 271.3Z" fill="#4f1fe4" stroke="#4f1fe4"></path><path d="M429 139.4L378 208.3L474 208.1Z" fill="#efefff" stroke="#efefff"></path><path d="M228 445.4L318 441.7L317 413.4Z" fill="#5f3cea" stroke="#5f3cea"></path><path d="M317 413.4L318 441.7L372 401.9Z" fill="#4f1fe4" stroke="#4f1fe4"></path><path d="M350 184.4L295 246.3L353 237.1Z" fill="#dddcff" stroke="#dddcff"></path><path d="M306 323L256 332L306 342.9Z" fill="#efefff" stroke="#efefff"></path><path d="M306 342.9L256 332L306 379.6Z" fill="#bbb6ff" stroke="#bbb6ff"></path><path d="M429 128.6L429 139.4L520 169.6Z" fill="#dddcff" stroke="#dddcff"></path><path d="M520 169.6L429 139.4L477 207.4Z" fill="#4f1fe4" stroke="#4f1fe4"></path><path d="M683 270.3L628 220.3L595 268.3Z" fill="#aba2fd" stroke="#aba2fd"></path><path d="M617 136.6L530 102.7L532 169.6Z" fill="#efefff" stroke="#efefff"></path><path d="M500 527.3L503 460.4L493 461.6Z" fill="#9b8ffb" stroke="#9b8ffb"></path><path d="M550 479.6L644 415.4L565 428.6Z" fill="#cbc9ff" stroke="#cbc9ff"></path><path d="M671 432.7L644 415.4L679 484.6Z" fill="#bbb6ff" stroke="#bbb6ff"></path><path d="M705 357L687 294L640 313.1Z" fill="#cbc9ff" stroke="#cbc9ff"></path><path d="M442 511.4L500 527.3L493 461.6Z" fill="#cbc9ff" stroke="#cbc9ff"></path><path d="M429 139.4L395 140.6L378 208.3Z" fill="#7d67f4" stroke="#7d67f4"></path><path d="M515 91.6L429 128.6L520 169.6Z" fill="#bbb6ff" stroke="#bbb6ff"></path><path d="M429 139.4L429 128.6L395 140.6Z" fill="#6e52f0" stroke="#6e52f0"></path><path d="M261 480.6L323 478.6L318 441.7Z" fill="#aba2fd" stroke="#aba2fd"></path><path d="M318 441.7L323 478.6L372 401.9Z" fill="#4f1fe4" stroke="#4f1fe4"></path><path d="M323 478.6L358 508.4L421 468.4Z" fill="#6e52f0" stroke="#6e52f0"></path><path d="M442 511.4L471 567.3L500 527.3Z" fill="#bbb6ff" stroke="#bbb6ff"></path><path d="M295 246.3L256 332L306 323Z" fill="#4f1fe4" stroke="#4f1fe4"></path><path d="M306 379.6L244 386.9L317 413.4Z" fill="#4f1fe4" stroke="#4f1fe4"></path><path d="M358 508.4L435 548.1L430 494.3Z" fill="#4f1fe4" stroke="#4f1fe4"></path><path d="M680 231.1L651 206.4L628 220.3Z" fill="#8c7bf8" stroke="#8c7bf8"></path><path d="M628 220.3L617 136.6L561 203.4Z" fill="#dddcff" stroke="#dddcff"></path><path d="M532 169.6L530 102.7L520 169.6Z" fill="#6e52f0" stroke="#6e52f0"></path><path d="M683 270.3L595 268.3L640 313.1Z" fill="#cbc9ff" stroke="#cbc9ff"></path><path d="M705 357L626 368.6L639 388.6Z" fill="#8c7bf8" stroke="#8c7bf8"></path><path d="M687 294L683 270.3L640 313.1Z" fill="#aba2fd" stroke="#aba2fd"></path><path d="M471 567.3L531 548.3L500 527.3Z" fill="#efefff" stroke="#efefff"></path><path d="M500 527.3L531 548.3L533 513.1Z" fill="#cbc9ff" stroke="#cbc9ff"></path><path d="M654 518.3L644 415.4L550 479.6Z" fill="#5f3cea" stroke="#5f3cea"></path><path d="M256 332L244 386.9L306 379.6Z" fill="#bbb6ff" stroke="#bbb6ff"></path><path d="M679 484.6L644 415.4L654 518.3Z" fill="#7d67f4" stroke="#7d67f4"></path><path d="M644 415.4L686 416.7L639 388.6Z" fill="#cbc9ff" stroke="#cbc9ff"></path><path d="M320 517.3L346 529.1L358 508.4Z" fill="#efefff" stroke="#efefff"></path><path d="M358 508.4L346 529.1L435 548.1Z" fill="#9b8ffb" stroke="#9b8ffb"></path><path d="M320 517.3L358 508.4L323 478.6Z" fill="#9b8ffb" stroke="#9b8ffb"></path><path d="M617 136.6L532 169.6L561 203.4Z" fill="#cbc9ff" stroke="#cbc9ff"></path><path d="M256 332L232 363.7L244 386.9Z" fill="#8c7bf8" stroke="#8c7bf8"></path><path d="M203 329L232 363.7L256 332Z" fill="#7d67f4" stroke="#7d67f4"></path><path d="M683 270.3L680 231.1L628 220.3Z" fill="#dddcff" stroke="#dddcff"></path><path d="M651 206.4L617 136.6L628 220.3Z" fill="#9b8ffb" stroke="#9b8ffb"></path><path d="M714 215.3L680 231.1L683 270.3Z" fill="#bbb6ff" stroke="#bbb6ff"></path><path d="M671 432.7L686 416.7L644 415.4Z" fill="#cbc9ff" stroke="#cbc9ff"></path><path d="M261 480.6L320 517.3L323 478.6Z" fill="#dddcff" stroke="#dddcff"></path><path d="M395 140.6L327 135.4L350 184.4Z" fill="#bbb6ff" stroke="#bbb6ff"></path><path d="M279 160.3L250 221.1L295 246.3Z" fill="#4f1fe4" stroke="#4f1fe4"></path><path d="M295 246.3L205 301L256 332Z" fill="#efefff" stroke="#efefff"></path><path d="M325 134.4L327 135.4L325 114.7Z" fill="#efefff" stroke="#efefff"></path><path d="M327 135.4L395 140.6L325 114.7Z" fill="#4f1fe4" stroke="#4f1fe4"></path><path d="M484 600L471 567.3L424 600Z" fill="#9b8ffb" stroke="#9b8ffb"></path><path d="M435 548.1L471 567.3L442 511.4Z" fill="#bbb6ff" stroke="#bbb6ff"></path><path d="M320 517.3L341 533.1L346 529.1Z" fill="#bbb6ff" stroke="#bbb6ff"></path><path d="M346 529.1L340 554.3L435 548.1Z" fill="#9b8ffb" stroke="#9b8ffb"></path><path d="M671 432.7L688 417.4L686 416.7Z" fill="#aba2fd" stroke="#aba2fd"></path><path d="M686 416.7L705 357L639 388.6Z" fill="#cbc9ff" stroke="#cbc9ff"></path><path d="M401 89.7L395 140.6L429 128.6Z" fill="#dddcff" stroke="#dddcff"></path><path d="M327 135.4L295 151.6L350 184.4Z" fill="#9b8ffb" stroke="#9b8ffb"></path><path d="M279 160.3L295 246.3L350 184.4Z" fill="#6e52f0" stroke="#6e52f0"></path><path d="M688 417.4L705 357L686 416.7Z" fill="#dddcff" stroke="#dddcff"></path><path d="M687 294L721 281.1L683 270.3Z" fill="#bbb6ff" stroke="#bbb6ff"></path><path d="M530 102.7L515 91.6L520 169.6Z" fill="#7d67f4" stroke="#7d67f4"></path><path d="M682 136.7L617 136.6L651 206.4Z" fill="#8c7bf8" stroke="#8c7bf8"></path><path d="M530 102.7L552 15.9L515 91.6Z" fill="#cbc9ff" stroke="#cbc9ff"></path><path d="M325 134.4L295 151.6L327 135.4Z" fill="#9b8ffb" stroke="#9b8ffb"></path><path d="M471 567.3L536 566.1L531 548.3Z" fill="#efefff" stroke="#efefff"></path><path d="M633 555.3L550 479.6L533 513.1Z" fill="#5f3cea" stroke="#5f3cea"></path><path d="M671 432.7L701 440.7L688 417.4Z" fill="#cbc9ff" stroke="#cbc9ff"></path><path d="M459 60.9L401 89.7L429 128.6Z" fill="#4f1fe4" stroke="#4f1fe4"></path><path d="M264 119.4L279 160.3L295 151.6Z" fill="#bbb6ff" stroke="#bbb6ff"></path><path d="M237 177.3L239 226.4L250 221.1Z" fill="#7d67f4" stroke="#7d67f4"></path><path d="M250 221.1L239 226.4L295 246.3Z" fill="#efefff" stroke="#efefff"></path><path d="M232 363.7L220 378.6L244 386.9Z" fill="#efefff" stroke="#efefff"></path><path d="M228 445.4L261 480.6L318 441.7Z" fill="#cbc9ff" stroke="#cbc9ff"></path><path d="M203 329L220 378.6L232 363.7Z" fill="#8c7bf8" stroke="#8c7bf8"></path><path d="M325 114.7L295 151.6L325 134.4Z" fill="#7d67f4" stroke="#7d67f4"></path><path d="M295 151.6L279 160.3L350 184.4Z" fill="#bbb6ff" stroke="#bbb6ff"></path><path d="M228 445.4L317 413.4L244 386.9Z" fill="#8c7bf8" stroke="#8c7bf8"></path><path d="M332 561.1L340 554.3L341 533.1Z" fill="#7d67f4" stroke="#7d67f4"></path><path d="M401 89.7L325 114.7L395 140.6Z" fill="#efefff" stroke="#efefff"></path><path d="M211 387.7L217 394.7L220 378.6Z" fill="#4f1fe4" stroke="#4f1fe4"></path><path d="M220 378.6L217 394.7L244 386.9Z" fill="#8c7bf8" stroke="#8c7bf8"></path><path d="M332 561.1L341 533.1L320 517.3Z" fill="#aba2fd" stroke="#aba2fd"></path><path d="M341 533.1L340 554.3L346 529.1Z" fill="#4f1fe4" stroke="#4f1fe4"></path><path d="M748 302.1L721 281.1L687 294Z" fill="#efefff" stroke="#efefff"></path><path d="M644 98.7L614 102.7L617 136.6Z" fill="#7d67f4" stroke="#7d67f4"></path><path d="M679 484.6L701 440.7L671 432.7Z" fill="#6e52f0" stroke="#6e52f0"></path><path d="M761 413.6L733 351.7L705 357Z" fill="#bbb6ff" stroke="#bbb6ff"></path><path d="M705 357L733 351.7L687 294Z" fill="#7d67f4" stroke="#7d67f4"></path><path d="M181 381.7L211 387.7L220 378.6Z" fill="#efefff" stroke="#efefff"></path><path d="M217 394.7L228 445.4L244 386.9Z" fill="#dddcff" stroke="#dddcff"></path><path d="M239 226.4L205 301L295 246.3Z" fill="#bbb6ff" stroke="#bbb6ff"></path><path d="M205 301L203 329L256 332Z" fill="#7d67f4" stroke="#7d67f4"></path><path d="M654 518.3L550 479.6L633 555.3Z" fill="#8c7bf8" stroke="#8c7bf8"></path><path d="M192 426.4L228 445.4L217 394.7Z" fill="#6e52f0" stroke="#6e52f0"></path><path d="M633 555.3L533 513.1L531 548.3Z" fill="#dddcff" stroke="#dddcff"></path><path d="M304 573.1L332 561.1L320 517.3Z" fill="#5f3cea" stroke="#5f3cea"></path><path d="M413 600L424 600L435 548.1Z" fill="#8c7bf8" stroke="#8c7bf8"></path><path d="M304 573.1L320 517.3L270 551.3Z" fill="#8c7bf8" stroke="#8c7bf8"></path><path d="M446 47.9L459 60.9L481 43.7Z" fill="#5f3cea" stroke="#5f3cea"></path><path d="M515 91.6L459 60.9L429 128.6Z" fill="#dddcff" stroke="#dddcff"></path><path d="M401 89.7L374 66.6L325 114.7Z" fill="#efefff" stroke="#efefff"></path><path d="M761 413.6L705 357L688 417.4Z" fill="#5f3cea" stroke="#5f3cea"></path><path d="M654 518.3L666 509.4L679 484.6Z" fill="#cbc9ff" stroke="#cbc9ff"></path><path d="M175 293.1L196 309.9L205 301Z" fill="#7d67f4" stroke="#7d67f4"></path><path d="M205 301L196 309.9L203 329Z" fill="#cbc9ff" stroke="#cbc9ff"></path><path d="M203 329L181 381.7L220 378.6Z" fill="#efefff" stroke="#efefff"></path><path d="M714 215.3L651 206.4L680 231.1Z" fill="#efefff" stroke="#efefff"></path><path d="M617 136.6L614 102.7L530 102.7Z" fill="#7d67f4" stroke="#7d67f4"></path><path d="M424 600L471 567.3L435 548.1Z" fill="#6e52f0" stroke="#6e52f0"></path><path d="M471 567.3L484 600L536 566.1Z" fill="#cbc9ff" stroke="#cbc9ff"></path><path d="M536 566.1L633 555.3L531 548.3Z" fill="#dddcff" stroke="#dddcff"></path><path d="M735 270.3L683 270.3L721 281.1Z" fill="#bbb6ff" stroke="#bbb6ff"></path><path d="M735 270.3L714 215.3L683 270.3Z" fill="#9b8ffb" stroke="#9b8ffb"></path><path d="M413 600L435 548.1L367 600Z" fill="#dddcff" stroke="#dddcff"></path><path d="M279 160.3L237 177.3L250 221.1Z" fill="#bbb6ff" stroke="#bbb6ff"></path><path d="M239 226.4L175 293.1L205 301Z" fill="#efefff" stroke="#efefff"></path><path d="M264 119.4L237 177.3L279 160.3Z" fill="#bbb6ff" stroke="#bbb6ff"></path><path d="M367 600L435 548.1L340 554.3Z" fill="#8c7bf8" stroke="#8c7bf8"></path><path d="M739 287L735 270.3L721 281.1Z" fill="#7d67f4" stroke="#7d67f4"></path><path d="M484 600L539 596.1L536 566.1Z" fill="#aba2fd" stroke="#aba2fd"></path><path d="M748 302.1L739 287L721 281.1Z" fill="#5f3cea" stroke="#5f3cea"></path><path d="M411 50.7L374 66.6L401 89.7Z" fill="#aba2fd" stroke="#aba2fd"></path><path d="M284 97.6L264 119.4L295 151.6Z" fill="#5f3cea" stroke="#5f3cea"></path><path d="M591 600L633 555.3L536 566.1Z" fill="#efefff" stroke="#efefff"></path><path d="M654 518.3L667 561.1L666 509.4Z" fill="#bbb6ff" stroke="#bbb6ff"></path><path d="M481 43.7L459 60.9L515 91.6Z" fill="#8c7bf8" stroke="#8c7bf8"></path><path d="M459 60.9L411 50.7L401 89.7Z" fill="#8c7bf8" stroke="#8c7bf8"></path><path d="M446 47.9L411 50.7L459 60.9Z" fill="#5f3cea" stroke="#5f3cea"></path><path d="M733 351.7L748 302.1L687 294Z" fill="#7d67f4" stroke="#7d67f4"></path><path d="M739 287L768 282.9L735 270.3Z" fill="#7d67f4" stroke="#7d67f4"></path><path d="M735 270.3L734 216.1L714 215.3Z" fill="#8c7bf8" stroke="#8c7bf8"></path><path d="M552 15.9L481 43.7L515 91.6Z" fill="#bbb6ff" stroke="#bbb6ff"></path><path d="M446 47.9L419 27.7L411 50.7Z" fill="#5f3cea" stroke="#5f3cea"></path><path d="M332 561.1L367 600L340 554.3Z" fill="#efefff" stroke="#efefff"></path><path d="M122 361L181 381.7L203 329Z" fill="#aba2fd" stroke="#aba2fd"></path><path d="M211 387.7L192 426.4L217 394.7Z" fill="#efefff" stroke="#efefff"></path><path d="M714 215.3L682 136.7L651 206.4Z" fill="#cbc9ff" stroke="#cbc9ff"></path><path d="M181 389.9L192 426.4L211 387.7Z" fill="#aba2fd" stroke="#aba2fd"></path><path d="M259 564.3L270 551.3L219 562.1Z" fill="#dddcff" stroke="#dddcff"></path><path d="M332 561.1L331 600L367 600Z" fill="#dddcff" stroke="#dddcff"></path><path d="M181 381.7L181 389.9L211 387.7Z" fill="#6e52f0" stroke="#6e52f0"></path><path d="M284 97.6L295 151.6L325 114.7Z" fill="#aba2fd" stroke="#aba2fd"></path><path d="M790 258L734 216.1L735 270.3Z" fill="#5f3cea" stroke="#5f3cea"></path><path d="M729 163.3L708 138.4L682 136.7Z" fill="#cbc9ff" stroke="#cbc9ff"></path><path d="M682 136.7L644 98.7L617 136.6Z" fill="#8c7bf8" stroke="#8c7bf8"></path><path d="M614 102.7L599 44.9L530 102.7Z" fill="#efefff" stroke="#efefff"></path><path d="M270 551.3L320 517.3L261 480.6Z" fill="#9b8ffb" stroke="#9b8ffb"></path><path d="M355 52.9L347 61.7L374 66.6Z" fill="#bbb6ff" stroke="#bbb6ff"></path><path d="M374 66.6L347 61.7L325 114.7Z" fill="#dddcff" stroke="#dddcff"></path><path d="M149 225.1L175 293.1L239 226.4Z" fill="#bbb6ff" stroke="#bbb6ff"></path><path d="M196 309.9L175 293.1L203 329Z" fill="#dddcff" stroke="#dddcff"></path><path d="M117 387.9L155 420.4L181 389.9Z" fill="#5f3cea" stroke="#5f3cea"></path><path d="M183 174.3L239 226.4L237 177.3Z" fill="#6e52f0" stroke="#6e52f0"></path><path d="M347 61.7L284 97.6L325 114.7Z" fill="#bbb6ff" stroke="#bbb6ff"></path><path d="M284 97.6L262 115.6L264 119.4Z" fill="#bbb6ff" stroke="#bbb6ff"></path><path d="M264 119.4L209 143.4L237 177.3Z" fill="#9b8ffb" stroke="#9b8ffb"></path><path d="M270 551.3L261 480.6L197 532.1Z" fill="#bbb6ff" stroke="#bbb6ff"></path><path d="M411 50.7L355 52.9L374 66.6Z" fill="#aba2fd" stroke="#aba2fd"></path><path d="M242 24.9L241 82.7L284 97.6Z" fill="#efefff" stroke="#efefff"></path><path d="M382 0L355 52.9L411 50.7Z" fill="#4f1fe4" stroke="#4f1fe4"></path><path d="M181 389.9L185 430.6L192 426.4Z" fill="#bbb6ff" stroke="#bbb6ff"></path><path d="M192 426.4L185 430.6L228 445.4Z" fill="#7d67f4" stroke="#7d67f4"></path><path d="M569 614.1L591 600L539 596.1Z" fill="#4f1fe4" stroke="#4f1fe4"></path><path d="M539 596.1L591 600L536 566.1Z" fill="#bbb6ff" stroke="#bbb6ff"></path><path d="M666 64.9L628 75.6L644 98.7Z" fill="#efefff" stroke="#efefff"></path><path d="M644 98.7L628 75.6L614 102.7Z" fill="#aba2fd" stroke="#aba2fd"></path><path d="M304 573.1L331 600L332 561.1Z" fill="#6e52f0" stroke="#6e52f0"></path><path d="M276 600L331 600L304 573.1Z" fill="#8c7bf8" stroke="#8c7bf8"></path><path d="M484 600L569 614.1L539 596.1Z" fill="#7d67f4" stroke="#7d67f4"></path><path d="M424 600L569 614.1L484 600Z" fill="#7d67f4" stroke="#7d67f4"></path><path d="M413 600L569 614.1L424 600Z" fill="#efefff" stroke="#efefff"></path><path d="M367 600L569 614.1L413 600Z" fill="#cbc9ff" stroke="#cbc9ff"></path><path d="M331 600L569 614.1L367 600Z" fill="#6e52f0" stroke="#6e52f0"></path><path d="M449 0L419 27.7L446 47.9Z" fill="#dddcff" stroke="#dddcff"></path><path d="M449 0L446 47.9L481 43.7Z" fill="#6e52f0" stroke="#6e52f0"></path><path d="M773 333.7L768 282.9L748 302.1Z" fill="#aba2fd" stroke="#aba2fd"></path><path d="M748 302.1L768 282.9L739 287Z" fill="#cbc9ff" stroke="#cbc9ff"></path><path d="M773 333.7L748 302.1L733 351.7Z" fill="#dddcff" stroke="#dddcff"></path><path d="M639 600L667 561.1L633 555.3Z" fill="#6e52f0" stroke="#6e52f0"></path><path d="M633 555.3L667 561.1L654 518.3Z" fill="#6e52f0" stroke="#6e52f0"></path><path d="M666 509.4L728 495.3L679 484.6Z" fill="#6e52f0" stroke="#6e52f0"></path><path d="M728 495.3L761 413.6L701 440.7Z" fill="#aba2fd" stroke="#aba2fd"></path><path d="M701 440.7L761 413.6L688 417.4Z" fill="#efefff" stroke="#efefff"></path><path d="M625 600L633 555.3L591 600Z" fill="#4f1fe4" stroke="#4f1fe4"></path><path d="M728 495.3L701 440.7L679 484.6Z" fill="#bbb6ff" stroke="#bbb6ff"></path><path d="M761 413.6L773 333.7L733 351.7Z" fill="#bbb6ff" stroke="#bbb6ff"></path><path d="M729 163.3L714 215.3L734 216.1Z" fill="#7d67f4" stroke="#7d67f4"></path><path d="M729 163.3L682 136.7L714 215.3Z" fill="#9b8ffb" stroke="#9b8ffb"></path><path d="M682 136.7L666 64.9L644 98.7Z" fill="#cbc9ff" stroke="#cbc9ff"></path><path d="M693 557.3L728 495.3L666 509.4Z" fill="#dddcff" stroke="#dddcff"></path><path d="M755 186.4L729 163.3L734 216.1Z" fill="#9b8ffb" stroke="#9b8ffb"></path><path d="M197 532.1L261 480.6L228 445.4Z" fill="#8c7bf8" stroke="#8c7bf8"></path><path d="M270 551.3L259 564.3L304 573.1Z" fill="#dddcff" stroke="#dddcff"></path><path d="M640 0L599 44.9L628 75.6Z" fill="#7d67f4" stroke="#7d67f4"></path><path d="M628 75.6L599 44.9L614 102.7Z" fill="#5f3cea" stroke="#5f3cea"></path><path d="M569 614.1L625 600L591 600Z" fill="#7d67f4" stroke="#7d67f4"></path><path d="M241 82.7L262 115.6L284 97.6Z" fill="#9b8ffb" stroke="#9b8ffb"></path><path d="M241 82.7L209 143.4L262 115.6Z" fill="#5f3cea" stroke="#5f3cea"></path><path d="M262 115.6L209 143.4L264 119.4Z" fill="#efefff" stroke="#efefff"></path><path d="M569 614.1L639 600L625 600Z" fill="#efefff" stroke="#efefff"></path><path d="M625 600L639 600L633 555.3Z" fill="#aba2fd" stroke="#aba2fd"></path><path d="M667 561.1L693 557.3L666 509.4Z" fill="#efefff" stroke="#efefff"></path><path d="M209 143.4L183 174.3L237 177.3Z" fill="#5f3cea" stroke="#5f3cea"></path><path d="M686 600L693 557.3L667 561.1Z" fill="#7d67f4" stroke="#7d67f4"></path><path d="M729 163.3L725 96.6L708 138.4Z" fill="#5f3cea" stroke="#5f3cea"></path><path d="M762 199.4L755 186.4L734 216.1Z" fill="#efefff" stroke="#efefff"></path><path d="M181 389.9L155 420.4L185 430.6Z" fill="#cbc9ff" stroke="#cbc9ff"></path><path d="M148 491.4L197 532.1L228 445.4Z" fill="#9b8ffb" stroke="#9b8ffb"></path><path d="M117 387.9L181 389.9L181 381.7Z" fill="#cbc9ff" stroke="#cbc9ff"></path><path d="M122 361L203 329L175 293.1Z" fill="#cbc9ff" stroke="#cbc9ff"></path><path d="M790 258L762 199.4L734 216.1Z" fill="#5f3cea" stroke="#5f3cea"></path><path d="M790 258L735 270.3L768 282.9Z" fill="#cbc9ff" stroke="#cbc9ff"></path><path d="M599 44.9L552 15.9L530 102.7Z" fill="#dddcff" stroke="#dddcff"></path><path d="M496 0L449 0L481 43.7Z" fill="#7d67f4" stroke="#7d67f4"></path><path d="M419 27.7L382 0L411 50.7Z" fill="#6e52f0" stroke="#6e52f0"></path><path d="M449 0L410 3.9L419 27.7Z" fill="#4f1fe4" stroke="#4f1fe4"></path><path d="M310 0L284 97.6L347 61.7Z" fill="#5f3cea" stroke="#5f3cea"></path><path d="M211 600L276 600L259 564.3Z" fill="#9b8ffb" stroke="#9b8ffb"></path><path d="M259 564.3L276 600L304 573.1Z" fill="#cbc9ff" stroke="#cbc9ff"></path><path d="M331 600L276 600L569 614.1Z" fill="#dddcff" stroke="#dddcff"></path><path d="M520 0L496 0L481 43.7Z" fill="#8c7bf8" stroke="#8c7bf8"></path><path d="M725 96.6L682 136.7L708 138.4Z" fill="#efefff" stroke="#efefff"></path><path d="M725 96.6L666 64.9L682 136.7Z" fill="#4f1fe4" stroke="#4f1fe4"></path><path d="M599 44.9L576 0L552 15.9Z" fill="#6e52f0" stroke="#6e52f0"></path><path d="M809 321.9L768 282.9L773 333.7Z" fill="#bbb6ff" stroke="#bbb6ff"></path><path d="M809 321.9L790 258L768 282.9Z" fill="#4f1fe4" stroke="#4f1fe4"></path><path d="M183 174.3L149 225.1L239 226.4Z" fill="#7d67f4" stroke="#7d67f4"></path><path d="M310 0L347 61.7L355 52.9Z" fill="#aba2fd" stroke="#aba2fd"></path><path d="M209 143.4L174 126.6L183 174.3Z" fill="#4f1fe4" stroke="#4f1fe4"></path><path d="M113 216.1L129 241.3L149 225.1Z" fill="#4f1fe4" stroke="#4f1fe4"></path><path d="M576 0L520 0L552 15.9Z" fill="#5f3cea" stroke="#5f3cea"></path><path d="M552 15.9L520 0L481 43.7Z" fill="#4f1fe4" stroke="#4f1fe4"></path><path d="M449 0L400 0L410 3.9Z" fill="#bbb6ff" stroke="#bbb6ff"></path><path d="M410 3.9L400 0L419 27.7Z" fill="#9b8ffb" stroke="#9b8ffb"></path><path d="M148 491.4L228 445.4L185 430.6Z" fill="#7d67f4" stroke="#7d67f4"></path><path d="M197 532.1L219 562.1L270 551.3Z" fill="#9b8ffb" stroke="#9b8ffb"></path><path d="M400 0L382 0L419 27.7Z" fill="#8c7bf8" stroke="#8c7bf8"></path><path d="M810 369.9L809 321.9L773 333.7Z" fill="#bbb6ff" stroke="#bbb6ff"></path><path d="M810 369.9L773 333.7L761 413.6Z" fill="#bbb6ff" stroke="#bbb6ff"></path><path d="M762 199.4L769 167.4L755 186.4Z" fill="#6e52f0" stroke="#6e52f0"></path><path d="M755 186.4L769 167.4L729 163.3Z" fill="#dddcff" stroke="#dddcff"></path><path d="M836 180.4L769 167.4L762 199.4Z" fill="#7d67f4" stroke="#7d67f4"></path><path d="M803 239L762 199.4L790 258Z" fill="#8c7bf8" stroke="#8c7bf8"></path><path d="M98 310L122 361L175 293.1Z" fill="#4f1fe4" stroke="#4f1fe4"></path><path d="M155 420.4L148 491.4L185 430.6Z" fill="#5f3cea" stroke="#5f3cea"></path><path d="M800 440.7L761 413.6L728 495.3Z" fill="#bbb6ff" stroke="#bbb6ff"></path><path d="M814 394.6L810 369.9L761 413.6Z" fill="#bbb6ff" stroke="#bbb6ff"></path><path d="M640 0L576 0L599 44.9Z" fill="#5f3cea" stroke="#5f3cea"></path><path d="M113 216.1L149 225.1L102 172.3Z" fill="#6e52f0" stroke="#6e52f0"></path><path d="M149 225.1L129 241.3L175 293.1Z" fill="#4f1fe4" stroke="#4f1fe4"></path><path d="M771 92.9L725 96.6L729 163.3Z" fill="#bbb6ff" stroke="#bbb6ff"></path><path d="M666 64.9L640 0L628 75.6Z" fill="#6e52f0" stroke="#6e52f0"></path><path d="M639 600L686 600L667 561.1Z" fill="#aba2fd" stroke="#aba2fd"></path><path d="M693 557.3L756 532.1L728 495.3Z" fill="#9b8ffb" stroke="#9b8ffb"></path><path d="M712 607.1L686 600L639 600Z" fill="#6e52f0" stroke="#6e52f0"></path><path d="M809 321.9L803 239L790 258Z" fill="#7d67f4" stroke="#7d67f4"></path><path d="M115 408.6L127 423.4L155 420.4Z" fill="#5f3cea" stroke="#5f3cea"></path><path d="M197 532.1L191 549.3L219 562.1Z" fill="#6e52f0" stroke="#6e52f0"></path><path d="M219 562.1L211 600L259 564.3Z" fill="#bbb6ff" stroke="#bbb6ff"></path><path d="M127 532.3L191 549.3L197 532.1Z" fill="#cbc9ff" stroke="#cbc9ff"></path><path d="M818 490.3L800 440.7L728 495.3Z" fill="#6e52f0" stroke="#6e52f0"></path><path d="M122 361L117 387.9L181 381.7Z" fill="#efefff" stroke="#efefff"></path><path d="M30 401.7L117 387.9L122 361Z" fill="#efefff" stroke="#efefff"></path><path d="M712 607.1L756 532.1L693 557.3Z" fill="#bbb6ff" stroke="#bbb6ff"></path><path d="M806 436.4L814 394.6L761 413.6Z" fill="#4f1fe4" stroke="#4f1fe4"></path><path d="M810 369.9L853 334.9L809 321.9Z" fill="#8c7bf8" stroke="#8c7bf8"></path><path d="M241 82.7L174 126.6L209 143.4Z" fill="#5f3cea" stroke="#5f3cea"></path><path d="M712 607.1L696 600L686 600Z" fill="#5f3cea" stroke="#5f3cea"></path><path d="M686 600L696 600L693 557.3Z" fill="#cbc9ff" stroke="#cbc9ff"></path><path d="M127 423.4L148 491.4L155 420.4Z" fill="#6e52f0" stroke="#6e52f0"></path><path d="M816 446.4L806 436.4L800 440.7Z" fill="#bbb6ff" stroke="#bbb6ff"></path><path d="M800 440.7L806 436.4L761 413.6Z" fill="#4f1fe4" stroke="#4f1fe4"></path><path d="M117 387.9L115 408.6L155 420.4Z" fill="#7d67f4" stroke="#7d67f4"></path><path d="M47 450.6L127 532.3L148 491.4Z" fill="#5f3cea" stroke="#5f3cea"></path><path d="M59 418.7L115 408.6L117 387.9Z" fill="#aba2fd" stroke="#aba2fd"></path><path d="M284 -19.1L382 0L400 0Z" fill="#8c7bf8" stroke="#8c7bf8"></path><path d="M284 -19.1L324 -3.1L382 0Z" fill="#dddcff" stroke="#dddcff"></path><path d="M382 0L324 -3.1L355 52.9Z" fill="#5f3cea" stroke="#5f3cea"></path><path d="M241 82.7L219 44.7L174 126.6Z" fill="#6e52f0" stroke="#6e52f0"></path><path d="M284 -19.1L400 0L449 0Z" fill="#bbb6ff" stroke="#bbb6ff"></path><path d="M284 -19.1L449 0L496 0Z" fill="#8c7bf8" stroke="#8c7bf8"></path><path d="M284 -19.1L496 0L520 0Z" fill="#dddcff" stroke="#dddcff"></path><path d="M771 92.9L735 86.9L725 96.6Z" fill="#aba2fd" stroke="#aba2fd"></path><path d="M715 59.7L692 42.9L666 64.9Z" fill="#cbc9ff" stroke="#cbc9ff"></path><path d="M745 69.6L735 86.9L771 92.9Z" fill="#6e52f0" stroke="#6e52f0"></path><path d="M324 -3.1L310 0L355 52.9Z" fill="#9b8ffb" stroke="#9b8ffb"></path><path d="M715 59.7L666 64.9L725 96.6Z" fill="#aba2fd" stroke="#aba2fd"></path><path d="M735 86.9L715 59.7L725 96.6Z" fill="#5f3cea" stroke="#5f3cea"></path><path d="M52 297.9L98 310L129 241.3Z" fill="#7d67f4" stroke="#7d67f4"></path><path d="M129 241.3L98 310L175 293.1Z" fill="#bbb6ff" stroke="#bbb6ff"></path><path d="M818 490.3L816 446.4L800 440.7Z" fill="#cbc9ff" stroke="#cbc9ff"></path><path d="M806 436.4L816 446.4L814 394.6Z" fill="#8c7bf8" stroke="#8c7bf8"></path><path d="M102 172.3L149 225.1L183 174.3Z" fill="#aba2fd" stroke="#aba2fd"></path><path d="M52 297.9L95 318.1L98 310Z" fill="#efefff" stroke="#efefff"></path><path d="M98 310L95 318.1L122 361Z" fill="#7d67f4" stroke="#7d67f4"></path><path d="M152 600L211 600L191 549.3Z" fill="#5f3cea" stroke="#5f3cea"></path><path d="M191 549.3L211 600L219 562.1Z" fill="#efefff" stroke="#efefff"></path><path d="M276 600L211 600L569 614.1Z" fill="#8c7bf8" stroke="#8c7bf8"></path><path d="M569 614.1L712 607.1L639 600Z" fill="#bbb6ff" stroke="#bbb6ff"></path><path d="M696 600L712 607.1L693 557.3Z" fill="#6e52f0" stroke="#6e52f0"></path><path d="M756 532.1L818 490.3L728 495.3Z" fill="#5f3cea" stroke="#5f3cea"></path><path d="M690 0L640 0L692 42.9Z" fill="#aba2fd" stroke="#aba2fd"></path><path d="M692 42.9L640 0L666 64.9Z" fill="#6e52f0" stroke="#6e52f0"></path><path d="M576 0L284 -19.1L520 0Z" fill="#bbb6ff" stroke="#bbb6ff"></path><path d="M745 69.6L720 54.7L715 59.7Z" fill="#8c7bf8" stroke="#8c7bf8"></path><path d="M715 59.7L720 54.7L692 42.9Z" fill="#4f1fe4" stroke="#4f1fe4"></path><path d="M242 24.9L219 44.7L241 82.7Z" fill="#dddcff" stroke="#dddcff"></path><path d="M92 195.1L105 214.3L113 216.1Z" fill="#aba2fd" stroke="#aba2fd"></path><path d="M275 0L242 24.9L284 97.6Z" fill="#bbb6ff" stroke="#bbb6ff"></path><path d="M102 172.3L183 174.3L174 126.6Z" fill="#5f3cea" stroke="#5f3cea"></path><path d="M113 216.1L105 214.3L129 241.3Z" fill="#7d67f4" stroke="#7d67f4"></path><path d="M284 -19.1L275 0L310 0Z" fill="#dddcff" stroke="#dddcff"></path><path d="M310 0L275 0L284 97.6Z" fill="#aba2fd" stroke="#aba2fd"></path><path d="M771 92.9L729 163.3L769 167.4Z" fill="#4f1fe4" stroke="#4f1fe4"></path><path d="M735 86.9L745 69.6L715 59.7Z" fill="#aba2fd" stroke="#aba2fd"></path><path d="M722 0L690 0L692 42.9Z" fill="#efefff" stroke="#efefff"></path><path d="M836 134.6L771 92.9L769 167.4Z" fill="#efefff" stroke="#efefff"></path><path d="M816 578.1L818 490.3L756 532.1Z" fill="#5f3cea" stroke="#5f3cea"></path><path d="M876 386.6L810 369.9L814 394.6Z" fill="#6e52f0" stroke="#6e52f0"></path><path d="M876 386.6L814 394.6L816 446.4Z" fill="#6e52f0" stroke="#6e52f0"></path><path d="M876 386.6L853 334.9L810 369.9Z" fill="#5f3cea" stroke="#5f3cea"></path><path d="M809 321.9L900 275.3L803 239Z" fill="#9b8ffb" stroke="#9b8ffb"></path><path d="M803 239L836 180.4L762 199.4Z" fill="#5f3cea" stroke="#5f3cea"></path><path d="M284 -19.1L253 0L275 0Z" fill="#5f3cea" stroke="#5f3cea"></path><path d="M275 0L253 0L242 24.9Z" fill="#dddcff" stroke="#dddcff"></path><path d="M242 24.9L223 0L219 44.7Z" fill="#aba2fd" stroke="#aba2fd"></path><path d="M324 -3.1L284 -19.1L310 0Z" fill="#4f1fe4" stroke="#4f1fe4"></path><path d="M640 0L284 -19.1L576 0Z" fill="#efefff" stroke="#efefff"></path><path d="M47 450.6L148 491.4L127 423.4Z" fill="#bbb6ff" stroke="#bbb6ff"></path><path d="M148 491.4L127 532.3L197 532.1Z" fill="#bbb6ff" stroke="#bbb6ff"></path><path d="M126 563.3L56 565.1L94 601.1Z" fill="#bbb6ff" stroke="#bbb6ff"></path><path d="M98 141.6L102 172.3L174 126.6Z" fill="#5f3cea" stroke="#5f3cea"></path><path d="M105 214.3L52 297.9L129 241.3Z" fill="#4f1fe4" stroke="#4f1fe4"></path><path d="M98 141.6L174 126.6L126 69.9Z" fill="#7d67f4" stroke="#7d67f4"></path><path d="M102 172.3L92 195.1L113 216.1Z" fill="#dddcff" stroke="#dddcff"></path><path d="M722 0L692 42.9L720 54.7Z" fill="#5f3cea" stroke="#5f3cea"></path><path d="M640 0L855 -10.1L284 -19.1Z" fill="#4f1fe4" stroke="#4f1fe4"></path><path d="M722 0L720 54.7L779 0Z" fill="#bbb6ff" stroke="#bbb6ff"></path><path d="M849 178.3L836 180.4L872 215.3Z" fill="#7d67f4" stroke="#7d67f4"></path><path d="M284 -19.1L223 0L253 0Z" fill="#5f3cea" stroke="#5f3cea"></path><path d="M253 0L223 0L242 24.9Z" fill="#efefff" stroke="#efefff"></path><path d="M59 418.7L127 423.4L115 408.6Z" fill="#4f1fe4" stroke="#4f1fe4"></path><path d="M127 532.3L126 563.3L191 549.3Z" fill="#4f1fe4" stroke="#4f1fe4"></path><path d="M872 215.3L836 180.4L803 239Z" fill="#6e52f0" stroke="#6e52f0"></path><path d="M836 180.4L836 134.6L769 167.4Z" fill="#5f3cea" stroke="#5f3cea"></path><path d="M779 0L720 54.7L745 69.6Z" fill="#dddcff" stroke="#dddcff"></path><path d="M126 69.9L174 126.6L132 60.7Z" fill="#7d67f4" stroke="#7d67f4"></path><path d="M102 172.3L83 162.6L92 195.1Z" fill="#aba2fd" stroke="#aba2fd"></path><path d="M126 563.3L152 600L191 549.3Z" fill="#8c7bf8" stroke="#8c7bf8"></path><path d="M211 600L94 601.1L569 614.1Z" fill="#bbb6ff" stroke="#bbb6ff"></path><path d="M63 207.4L52 297.9L105 214.3Z" fill="#aba2fd" stroke="#aba2fd"></path><path d="M30 401.7L59 418.7L117 387.9Z" fill="#9b8ffb" stroke="#9b8ffb"></path><path d="M63 207.4L105 214.3L92 195.1Z" fill="#efefff" stroke="#efefff"></path><path d="M857 477.4L876 386.6L816 446.4Z" fill="#cbc9ff" stroke="#cbc9ff"></path><path d="M900 258.1L872 215.3L803 239Z" fill="#5f3cea" stroke="#5f3cea"></path><path d="M30 401.7L122 361L95 318.1Z" fill="#7d67f4" stroke="#7d67f4"></path><path d="M98 141.6L83 162.6L102 172.3Z" fill="#6e52f0" stroke="#6e52f0"></path><path d="M779 0L745 69.6L782 0Z" fill="#5f3cea" stroke="#5f3cea"></path><path d="M690 0L855 -10.1L640 0Z" fill="#4f1fe4" stroke="#4f1fe4"></path><path d="M849 178.3L836 134.6L836 180.4Z" fill="#9b8ffb" stroke="#9b8ffb"></path><path d="M900 507.1L857 477.4L818 490.3Z" fill="#8c7bf8" stroke="#8c7bf8"></path><path d="M818 490.3L857 477.4L816 446.4Z" fill="#cbc9ff" stroke="#cbc9ff"></path><path d="M83 162.6L63 207.4L92 195.1Z" fill="#4f1fe4" stroke="#4f1fe4"></path><path d="M900 275.3L809 321.9L853 334.9Z" fill="#9b8ffb" stroke="#9b8ffb"></path><path d="M900 116.6L843 103.6L836 134.6Z" fill="#7d67f4" stroke="#7d67f4"></path><path d="M98 141.6L83 142.6L83 162.6Z" fill="#efefff" stroke="#efefff"></path><path d="M83 162.6L56 208.4L63 207.4Z" fill="#bbb6ff" stroke="#bbb6ff"></path><path d="M84 124.4L83 142.6L98 141.6Z" fill="#6e52f0" stroke="#6e52f0"></path><path d="M0 205.4L56 208.4L0 203.1Z" fill="#efefff" stroke="#efefff"></path><path d="M63 207.4L56 208.4L52 297.9Z" fill="#6e52f0" stroke="#6e52f0"></path><path d="M132 60.7L174 126.6L219 44.7Z" fill="#bbb6ff" stroke="#bbb6ff"></path><path d="M161 23.9L132 60.7L219 44.7Z" fill="#cbc9ff" stroke="#cbc9ff"></path><path d="M126 563.3L132 600L152 600Z" fill="#7d67f4" stroke="#7d67f4"></path><path d="M152 600L94 601.1L211 600Z" fill="#8c7bf8" stroke="#8c7bf8"></path><path d="M130 600L132 600L126 563.3Z" fill="#efefff" stroke="#efefff"></path><path d="M712 607.1L816 578.1L756 532.1Z" fill="#aba2fd" stroke="#aba2fd"></path><path d="M94 601.1L130 600L126 563.3Z" fill="#bbb6ff" stroke="#bbb6ff"></path><path d="M132 600L94 601.1L152 600Z" fill="#6e52f0" stroke="#6e52f0"></path><path d="M223 0L161 23.9L219 44.7Z" fill="#dddcff" stroke="#dddcff"></path><path d="M843 103.6L827 91.9L836 134.6Z" fill="#8c7bf8" stroke="#8c7bf8"></path><path d="M836 134.6L827 91.9L771 92.9Z" fill="#8c7bf8" stroke="#8c7bf8"></path><path d="M103 67.9L84 124.4L126 69.9Z" fill="#8c7bf8" stroke="#8c7bf8"></path><path d="M126 69.9L84 124.4L98 141.6Z" fill="#6e52f0" stroke="#6e52f0"></path><path d="M0 205.4L0 236.3L56 208.4Z" fill="#9b8ffb" stroke="#9b8ffb"></path><path d="M21 409.6L47 450.6L59 418.7Z" fill="#5f3cea" stroke="#5f3cea"></path><path d="M59 418.7L47 450.6L127 423.4Z" fill="#5f3cea" stroke="#5f3cea"></path><path d="M900 380.7L900 298L853 334.9Z" fill="#9b8ffb" stroke="#9b8ffb"></path><path d="M900 380.7L853 334.9L876 386.6Z" fill="#aba2fd" stroke="#aba2fd"></path><path d="M900 398.9L876 386.6L857 477.4Z" fill="#9b8ffb" stroke="#9b8ffb"></path><path d="M900 398.9L900 380.7L876 386.6Z" fill="#dddcff" stroke="#dddcff"></path><path d="M900 298L900 275.3L853 334.9Z" fill="#7d67f4" stroke="#7d67f4"></path><path d="M900 159.4L836 134.6L849 178.3Z" fill="#efefff" stroke="#efefff"></path><path d="M900 159.4L849 178.3L872 215.3Z" fill="#7d67f4" stroke="#7d67f4"></path><path d="M782 0L745 69.6L771 92.9Z" fill="#8c7bf8" stroke="#8c7bf8"></path><path d="M900 470.6L900 398.9L857 477.4Z" fill="#cbc9ff" stroke="#cbc9ff"></path><path d="M900 275.3L900 258.1L803 239Z" fill="#cbc9ff" stroke="#cbc9ff"></path><path d="M21 409.6L30 401.7L0 391.9Z" fill="#dddcff" stroke="#dddcff"></path><path d="M52 297.9L30 401.7L95 318.1Z" fill="#9b8ffb" stroke="#9b8ffb"></path><path d="M113 46.7L126 69.9L132 60.7Z" fill="#bbb6ff" stroke="#bbb6ff"></path><path d="M113 46.7L103 67.9L126 69.9Z" fill="#9b8ffb" stroke="#9b8ffb"></path><path d="M712 607.1L822 600L816 578.1Z" fill="#6e52f0" stroke="#6e52f0"></path><path d="M900 487.4L896 474.3L857 477.4Z" fill="#6e52f0" stroke="#6e52f0"></path><path d="M0 391.9L30 401.7L52 297.9Z" fill="#6e52f0" stroke="#6e52f0"></path><path d="M30 401.7L21 409.6L59 418.7Z" fill="#5f3cea" stroke="#5f3cea"></path><path d="M56 565.1L126 563.3L127 532.3Z" fill="#4f1fe4" stroke="#4f1fe4"></path><path d="M161 23.9L113 46.7L132 60.7Z" fill="#5f3cea" stroke="#5f3cea"></path><path d="M900 298L911 253.1L900 275.3Z" fill="#cbc9ff" stroke="#cbc9ff"></path><path d="M900 275.3L911 253.1L900 258.1Z" fill="#7d67f4" stroke="#7d67f4"></path><path d="M900 258.1L916 244L872 215.3Z" fill="#9b8ffb" stroke="#9b8ffb"></path><path d="M916 244L911 253.1L900 298Z" fill="#dddcff" stroke="#dddcff"></path><path d="M916 244L900 298L900 380.7Z" fill="#efefff" stroke="#efefff"></path><path d="M900 487.4L857 477.4L900 507.1Z" fill="#4f1fe4" stroke="#4f1fe4"></path><path d="M900 398.9L916 244L900 380.7Z" fill="#dddcff" stroke="#dddcff"></path><path d="M782 0L771 92.9L827 91.9Z" fill="#8c7bf8" stroke="#8c7bf8"></path><path d="M722 0L855 -10.1L690 0Z" fill="#9b8ffb" stroke="#9b8ffb"></path><path d="M860 39.7L782 0L827 91.9Z" fill="#bbb6ff" stroke="#bbb6ff"></path><path d="M779 0L855 -10.1L722 0Z" fill="#8c7bf8" stroke="#8c7bf8"></path><path d="M900 487.4L900 470.6L896 474.3Z" fill="#aba2fd" stroke="#aba2fd"></path><path d="M896 474.3L900 470.6L857 477.4Z" fill="#9b8ffb" stroke="#9b8ffb"></path><path d="M900 470.6L916 244L900 398.9Z" fill="#7d67f4" stroke="#7d67f4"></path><path d="M911 253.1L916 244L900 258.1Z" fill="#8c7bf8" stroke="#8c7bf8"></path><path d="M48 531.3L127 532.3L47 450.6Z" fill="#4f1fe4" stroke="#4f1fe4"></path><path d="M130 600L94 601.1L132 600Z" fill="#cbc9ff" stroke="#cbc9ff"></path><path d="M900 507.1L818 490.3L900 554.3Z" fill="#efefff" stroke="#efefff"></path><path d="M900 470.6L900 487.4L916 244Z" fill="#dddcff" stroke="#dddcff"></path><path d="M0 494.4L48 531.3L47 450.6Z" fill="#bbb6ff" stroke="#bbb6ff"></path><path d="M0 236.3L0 256L56 208.4Z" fill="#7d67f4" stroke="#7d67f4"></path><path d="M103 67.9L64 48.9L84 124.4Z" fill="#7d67f4" stroke="#7d67f4"></path><path d="M113 46.7L95 49.7L103 67.9Z" fill="#7d67f4" stroke="#7d67f4"></path><path d="M64 48.9L95 49.7L81 0Z" fill="#8c7bf8" stroke="#8c7bf8"></path><path d="M916 244L900 159.4L872 215.3Z" fill="#cbc9ff" stroke="#cbc9ff"></path><path d="M843 103.6L862 47.7L827 91.9Z" fill="#4f1fe4" stroke="#4f1fe4"></path><path d="M-3 270L0 391.9L52 297.9Z" fill="#5f3cea" stroke="#5f3cea"></path><path d="M21 409.6L0 417.7L47 450.6Z" fill="#8c7bf8" stroke="#8c7bf8"></path><path d="M0 256L52 297.9L56 208.4Z" fill="#efefff" stroke="#efefff"></path><path d="M900 554.3L818 490.3L816 578.1Z" fill="#5f3cea" stroke="#5f3cea"></path><path d="M900 487.4L900 507.1L916 244Z" fill="#7d67f4" stroke="#7d67f4"></path><path d="M83 162.6L0 203.1L56 208.4Z" fill="#6e52f0" stroke="#6e52f0"></path><path d="M0 256L-3 270L52 297.9Z" fill="#cbc9ff" stroke="#cbc9ff"></path><path d="M43 590.1L56 565.1L0 550.3Z" fill="#9b8ffb" stroke="#9b8ffb"></path><path d="M48 531.3L56 565.1L127 532.3Z" fill="#6e52f0" stroke="#6e52f0"></path><path d="M-2 505.4L0 417.7L0 391.9Z" fill="#6e52f0" stroke="#6e52f0"></path><path d="M0 391.9L0 417.7L21 409.6Z" fill="#6e52f0" stroke="#6e52f0"></path><path d="M0 256L0 236.3L-3 270Z" fill="#bbb6ff" stroke="#bbb6ff"></path><path d="M83 162.6L83 142.6L0 203.1Z" fill="#7d67f4" stroke="#7d67f4"></path><path d="M867 618.1L857 600L822 600Z" fill="#6e52f0" stroke="#6e52f0"></path><path d="M822 600L857 600L816 578.1Z" fill="#dddcff" stroke="#dddcff"></path><path d="M0 203.1L83 142.6L0 92.6Z" fill="#9b8ffb" stroke="#9b8ffb"></path><path d="M0 236.3L0 205.4L-3 270Z" fill="#aba2fd" stroke="#aba2fd"></path><path d="M0 92.6L83 142.6L84 124.4Z" fill="#6e52f0" stroke="#6e52f0"></path><path d="M0 205.4L0 203.1L-3 270Z" fill="#bbb6ff" stroke="#bbb6ff"></path><path d="M916 244L900 116.6L900 159.4Z" fill="#cbc9ff" stroke="#cbc9ff"></path><path d="M900 159.4L900 116.6L836 134.6Z" fill="#efefff" stroke="#efefff"></path><path d="M900 77.7L862 47.7L843 103.6Z" fill="#dddcff" stroke="#dddcff"></path><path d="M900 0L860 39.7L862 47.7Z" fill="#5f3cea" stroke="#5f3cea"></path><path d="M862 47.7L860 39.7L827 91.9Z" fill="#bbb6ff" stroke="#bbb6ff"></path><path d="M857 600L900 554.3L816 578.1Z" fill="#6e52f0" stroke="#6e52f0"></path><path d="M900 507.1L900 554.3L916 244Z" fill="#5f3cea" stroke="#5f3cea"></path><path d="M90 0L95 49.7L113 46.7Z" fill="#8c7bf8" stroke="#8c7bf8"></path><path d="M95 49.7L64 48.9L103 67.9Z" fill="#efefff" stroke="#efefff"></path><path d="M90 0L113 46.7L161 23.9Z" fill="#bbb6ff" stroke="#bbb6ff"></path><path d="M90 0L161 23.9L223 0Z" fill="#dddcff" stroke="#dddcff"></path><path d="M0 417.7L0 487.6L47 450.6Z" fill="#aba2fd" stroke="#aba2fd"></path><path d="M-2 505.4L0 487.6L0 417.7Z" fill="#9b8ffb" stroke="#9b8ffb"></path><path d="M-2 505.4L0 494.4L0 487.6Z" fill="#8c7bf8" stroke="#8c7bf8"></path><path d="M0 487.6L0 494.4L47 450.6Z" fill="#aba2fd" stroke="#aba2fd"></path><path d="M712 607.1L867 618.1L822 600Z" fill="#7d67f4" stroke="#7d67f4"></path><path d="M857 600L899 600L900 554.3Z" fill="#4f1fe4" stroke="#4f1fe4"></path><path d="M569 614.1L867 618.1L712 607.1Z" fill="#9b8ffb" stroke="#9b8ffb"></path><path d="M0 550.3L56 565.1L48 531.3Z" fill="#7d67f4" stroke="#7d67f4"></path><path d="M56 565.1L43 590.1L94 601.1Z" fill="#7d67f4" stroke="#7d67f4"></path><path d="M284 -19.1L90 0L223 0Z" fill="#aba2fd" stroke="#aba2fd"></path><path d="M-3 270L-2 505.4L0 391.9Z" fill="#dddcff" stroke="#dddcff"></path><path d="M0 494.4L-2 505.4L48 531.3Z" fill="#9b8ffb" stroke="#9b8ffb"></path><path d="M916 244L900 77.7L900 116.6Z" fill="#bbb6ff" stroke="#bbb6ff"></path><path d="M900 116.6L900 77.7L843 103.6Z" fill="#7d67f4" stroke="#7d67f4"></path><path d="M916 244L900 70.9L900 77.7Z" fill="#cbc9ff" stroke="#cbc9ff"></path><path d="M900 77.7L900 70.9L862 47.7Z" fill="#aba2fd" stroke="#aba2fd"></path><path d="M284 -19.1L81 0L90 0Z" fill="#7d67f4" stroke="#7d67f4"></path><path d="M90 0L81 0L95 49.7Z" fill="#bbb6ff" stroke="#bbb6ff"></path><path d="M64 48.9L0 92.6L84 124.4Z" fill="#6e52f0" stroke="#6e52f0"></path><path d="M867 618.1L899 600L857 600Z" fill="#8c7bf8" stroke="#8c7bf8"></path><path d="M900 554.3L900 600L916 244Z" fill="#efefff" stroke="#efefff"></path><path d="M867 618.1L900 600L899 600Z" fill="#7d67f4" stroke="#7d67f4"></path><path d="M899 600L900 600L900 554.3Z" fill="#6e52f0" stroke="#6e52f0"></path><path d="M-2 505.4L0 545.1L48 531.3Z" fill="#cbc9ff" stroke="#cbc9ff"></path><path d="M-2 505.4L0 550.3L0 545.1Z" fill="#aba2fd" stroke="#aba2fd"></path><path d="M0 545.1L0 550.3L48 531.3Z" fill="#8c7bf8" stroke="#8c7bf8"></path><path d="M860 39.7L855 -10.1L782 0Z" fill="#cbc9ff" stroke="#cbc9ff"></path><path d="M782 0L855 -10.1L779 0Z" fill="#cbc9ff" stroke="#cbc9ff"></path><path d="M874 0L855 -10.1L860 39.7Z" fill="#dddcff" stroke="#dddcff"></path><path d="M0 79.9L0 92.6L64 48.9Z" fill="#cbc9ff" stroke="#cbc9ff"></path><path d="M0 203.1L0 92.6L-3 270Z" fill="#5f3cea" stroke="#5f3cea"></path><path d="M0 550.3L16 600L43 590.1Z" fill="#8c7bf8" stroke="#8c7bf8"></path><path d="M43 590.1L16 600L94 601.1Z" fill="#9b8ffb" stroke="#9b8ffb"></path><path d="M94 601.1L0 600L569 614.1Z" fill="#8c7bf8" stroke="#8c7bf8"></path><path d="M900 0L874 0L860 39.7Z" fill="#dddcff" stroke="#dddcff"></path><path d="M0 62.7L0 79.9L64 48.9Z" fill="#7d67f4" stroke="#7d67f4"></path><path d="M0 92.6L0 79.9L-3 270Z" fill="#7d67f4" stroke="#7d67f4"></path><path d="M13 0L0 62.7L64 48.9Z" fill="#bbb6ff" stroke="#bbb6ff"></path><path d="M0 79.9L0 62.7L-3 270Z" fill="#7d67f4" stroke="#7d67f4"></path><path d="M-2 505.4L0 600L0 550.3Z" fill="#4f1fe4" stroke="#4f1fe4"></path><path d="M0 550.3L0 600L16 600Z" fill="#8c7bf8" stroke="#8c7bf8"></path><path d="M16 600L0 600L94 601.1Z" fill="#aba2fd" stroke="#aba2fd"></path><path d="M916 244L900 0L900 70.9Z" fill="#4f1fe4" stroke="#4f1fe4"></path><path d="M900 70.9L900 0L862 47.7Z" fill="#dddcff" stroke="#dddcff"></path><path d="M874 0L900 0L855 -10.1Z" fill="#9b8ffb" stroke="#9b8ffb"></path><path d="M81 0L13 0L64 48.9Z" fill="#4f1fe4" stroke="#4f1fe4"></path><path d="M284 -19.1L13 0L81 0Z" fill="#aba2fd" stroke="#aba2fd"></path><path d="M284 -19.1L0 0L13 0Z" fill="#aba2fd" stroke="#aba2fd"></path><path d="M13 0L0 0L0 62.7Z" fill="#aba2fd" stroke="#aba2fd"></path><path d="M0 62.7L0 0L-3 270Z" fill="#6e52f0" stroke="#6e52f0"></path></g></svg>