<svg width="520" height="456" viewBox="0 0 520 456" fill="none" xmlns="http://www.w3.org/2000/svg">
<g clip-path="url(#clip0_13_90)">
<mask id="mask0_13_90" style="mask-type:luminance" maskUnits="userSpaceOnUse" x="-817" y="-252" width="1338" height="752">
<path d="M-816.546 -251.634H520V499.097H-816.546V-251.634Z" fill="white"/>
</mask>
<g mask="url(#mask0_13_90)">
<path d="M142.843 455.34H599.932L491.685 402.788H34.5797L142.843 455.34Z" fill="#7D7DF9"/>
<path d="M38.7216 402.423L142.843 452.333L598.435 444.826V390.937L39.8527 339.723L39.6613 350.863L39.6091 354.234L39.3829 366.677L39.3133 370.031L39.0522 384.42L39 387.774V387.791L38.7216 402.423Z" fill="#E5E5E5"/>
<path d="M142.843 390.78H599.932V455.34H142.843V390.78Z" fill="#6C63FE"/>
<path d="M142.843 390.78H599.932L491.685 338.229H34.5797L142.843 390.78Z" fill="#7D7DF9"/>
<path d="M39.6091 354.234L130.122 401.12L131.497 398.444L39.6613 350.863L39.6091 354.234Z" fill="#B1B1B2"/>
<path d="M39.3133 370.031L119.593 411.634L120.968 408.958L39.3829 366.677L39.3133 370.031Z" fill="#B1B1B2"/>
<path d="M39 387.774V387.791L125.614 432.644L126.989 429.985L39.0522 384.42L39 387.774Z" fill="#B1B1B2"/>
<path d="M195.905 384.767H667.594L555.885 332.216H84.1954L195.905 384.767Z" fill="#F78B9D"/>
<path d="M88.4766 331.851L195.905 381.761L666.046 374.254V320.364L89.6426 237.627L89.4337 280.291L89.3815 283.662L89.1553 296.105L89.0857 299.476L88.8246 313.848L88.755 317.202V317.219L88.4766 331.851Z" fill="#E5E5E5"/>
<path d="M195.905 290.179H667.594V386.262H195.905V290.179Z" fill="#F46B7C"/>
<path d="M195.905 290.179H667.594L555.885 237.627H84.1954L195.905 290.179Z" fill="#F68A9C"/>
<path d="M89.3815 283.662L182.783 330.548L184.21 327.872L89.4337 280.291L89.3815 283.662Z" fill="#B1B1B2"/>
<path d="M89.0857 299.476L171.924 341.062L173.351 338.385L89.1553 296.105L89.0857 299.476Z" fill="#B1B1B2"/>
<path d="M89.0857 264.928L171.924 306.531L173.351 303.855L89.1553 261.574L89.0857 264.928Z" fill="#B1B1B2"/>
<path d="M88.755 317.202V317.219L178.137 362.089L179.564 359.413L88.8246 313.848L88.755 317.202Z" fill="#B1B1B2"/>
<path d="M186.438 276.659H643.543L535.28 224.107H78.1914L186.438 276.659Z" fill="#95C6B4"/>
<path d="M82.3333 223.742L186.438 273.652L642.047 266.145V212.273L83.4645 161.042L83.2731 172.199L83.2035 175.553L82.9772 187.996L82.925 191.367L82.664 205.756L82.6118 209.093V209.11L82.3333 223.742Z" fill="#E5E5E5"/>
<path d="M186.438 212.099H643.543V276.659H186.438V212.099Z" fill="#85B1A3"/>
<path d="M186.438 212.099H643.543L535.28 159.548H78.1914L186.438 212.099Z" fill="#95C6B3"/>
<path d="M83.2035 175.553L173.716 222.439L175.108 219.78L83.2731 172.199L83.2035 175.553Z" fill="#B1B1B2"/>
<path d="M82.925 191.367L163.205 232.953L164.58 230.277L82.9772 187.996L82.925 191.367Z" fill="#B1B1B2"/>
<path d="M82.6118 209.093V209.11L169.209 253.98L170.601 251.304L82.664 205.756L82.6118 209.093Z" fill="#B1B1B2"/>
<path d="M108.264 192.584H565.352L457.088 140.032H0L108.264 192.584Z" fill="#3A3669"/>
<path d="M4.1419 139.667L108.264 189.577L563.855 182.07V128.18L5.27309 76.9674L5.08166 88.1067L5.01205 91.4781L4.78581 103.921L4.7336 107.275L4.47256 121.664L4.42035 125.018V125.035L4.1419 139.667Z" fill="#E5E5E5"/>
<path d="M108.264 128.024H565.352V192.584H108.264V128.024Z" fill="#34335E"/>
<path d="M108.264 128.024H565.352L457.088 75.4729H0L108.264 128.024Z" fill="#3A3669"/>
<path d="M5.01205 91.4781L95.5422 138.364L96.917 135.688L5.08166 88.1067L5.01205 91.4781Z" fill="#B1B1B2"/>
<path d="M4.7336 107.275L85.0134 148.878L86.3882 146.202L4.78581 103.921L4.7336 107.275Z" fill="#B1B1B2"/>
<path d="M4.42035 125.018V125.035L91.0174 169.888L92.4096 167.229L4.47256 121.664L4.42035 125.018Z" fill="#B1B1B2"/>
<path d="M142.843 117.51H599.932L491.685 64.9592H34.5797L142.843 117.51Z" fill="#7D7DF9"/>
<path d="M38.7216 64.5942L142.843 114.504L598.435 106.997V53.1073L39.8527 1.89422L39.6613 13.0335L39.6091 16.4049L39.3829 28.8476L39.3133 32.2015L39.0522 46.5906L39 49.9445V49.9619L38.7216 64.5942Z" fill="#E5E5E5"/>
<path d="M142.843 50.8656H599.932V115.425H142.843V50.8656Z" fill="#6B62FD"/>
<path d="M142.843 52.9509H599.932L491.685 0.399704H34.5797L142.843 52.9509Z" fill="#7C7CF9"/>
<path d="M39.6091 16.4049L130.122 63.2909L131.497 60.6146L39.6613 13.0335L39.6091 16.4049Z" fill="#B1B1B2"/>
<path d="M39.3133 32.2015L119.593 73.8046L120.968 71.1284L39.3829 28.8476L39.3133 32.2015Z" fill="#B1B1B2"/>
<path d="M39 49.9445V49.9619L125.614 94.8146L126.989 92.1558L39.0522 46.5906L39 49.9445Z" fill="#B1B1B2"/>
</g>
</g>
<defs>
<clipPath id="clip0_13_90">
<rect width="520" height="456" fill="white"/>
</clipPath>
</defs>
</svg>
