<svg width="382" height="184" viewBox="0 0 382 184" fill="none" xmlns="http://www.w3.org/2000/svg">
<path opacity="0.1" d="M191.049 184.098C85.4835 184.098 0.122742 174.923 0.122742 163.583C0.122742 152.243 85.4835 143.067 191.049 143.067C296.639 143.067 381.975 152.243 381.975 163.583C381.975 174.923 296.639 184.098 191.049 184.098Z" fill="black"/>
<path d="M149.829 63.785H220.804V87.154H149.829V63.785Z" fill="#6C63FE"/>
<path opacity="0.4" d="M86.0236 148.307C48.4128 148.307 18.0198 117.829 18.0198 80.1433C18.0198 42.4577 48.4128 11.9797 86.0236 11.9797C123.634 11.9797 154.052 42.4577 154.052 80.1433C154.052 117.829 123.634 148.307 86.0236 148.307Z" fill="white"/>
<path opacity="0.1" d="M41.5388 85.0385C41.5388 113.672 59.1658 138.197 84.1578 148.258C47.4554 147.274 18.0198 117.165 18.0198 80.1433C18.0198 42.5069 48.4619 11.9797 86.0236 11.9797C95.009 11.9797 103.577 13.7262 111.433 16.8995C110.811 16.8831 110.189 16.8749 109.567 16.8749C71.981 16.8749 41.5388 47.4021 41.5388 85.0385Z" fill="black"/>
<path opacity="0.4" d="M291.926 148.307C254.315 148.307 223.897 117.829 223.897 80.1433C223.897 42.4577 254.315 11.9797 291.926 11.9797C329.536 11.9797 359.929 42.4577 359.929 80.1433C359.929 117.829 329.536 148.307 291.926 148.307Z" fill="white"/>
<path opacity="0.1" d="M247.441 85.0385C247.441 113.672 265.068 138.197 290.035 148.258C253.357 147.274 223.897 117.165 223.897 80.1433C223.897 42.5069 254.364 11.9797 291.926 11.9797C300.886 11.9797 309.479 13.7262 317.31 16.8995C316.689 16.8831 316.067 16.8749 315.445 16.8749C277.883 16.8749 247.441 47.4021 247.441 85.0385Z" fill="black"/>
<path fill-rule="evenodd" clip-rule="evenodd" d="M86.0236 159.573C42.2017 159.573 6.75128 124.077 6.75128 80.1433C6.75128 36.2096 42.2017 0.713379 86.0236 0.713379C129.87 0.713379 165.296 36.2096 165.296 80.1433C165.296 124.077 129.87 159.573 86.0236 159.573ZM141.973 80.1433C141.973 49.1487 116.981 24.0824 86.0236 24.0824C55.0905 24.0824 30.0739 49.1487 30.0739 80.1433C30.0739 111.138 55.0905 136.204 86.0236 136.204C116.981 136.204 141.973 111.138 141.973 80.1433Z" fill="#7D7DF9"/>
<path fill-rule="evenodd" clip-rule="evenodd" d="M291.926 160.754C248.079 160.754 212.653 125.233 212.653 81.2995C212.653 37.3904 248.079 1.86954 291.926 1.86954C335.748 1.86954 371.198 37.3904 371.198 81.2995C371.198 125.233 335.748 160.754 291.926 160.754ZM347.875 81.2995C347.875 50.3048 322.859 25.2385 291.926 25.2385C260.968 25.2385 235.951 50.3048 235.951 81.2995C235.951 112.319 260.968 137.385 291.926 137.385C322.859 137.385 347.875 112.319 347.875 81.2995Z" fill="#7D7DF9"/>
</svg>
