<svg width="906" height="451" viewBox="0 0 906 451" fill="none" xmlns="http://www.w3.org/2000/svg">
<path d="M729.128 233.343H721.15V225.368C721.15 223.81 719.885 222.563 718.326 222.563C716.767 222.563 715.52 223.81 715.52 225.368V233.343H707.524C705.983 233.343 704.718 234.608 704.718 236.167C704.718 237.725 705.983 238.99 707.524 238.99H715.52V246.965C715.52 248.523 716.767 249.77 718.326 249.77C719.885 249.77 721.15 248.523 721.15 246.965V238.99H729.128C730.687 238.99 731.953 237.725 731.953 236.167C731.953 234.608 730.687 233.343 729.128 233.343Z" fill="#34335F"/>
<path d="M584.869 16.4417H576.891V8.46668C576.891 6.90835 575.626 5.64334 574.067 5.64334C572.508 5.64334 571.261 6.90835 571.261 8.46668V16.4417H563.265C561.724 16.4417 560.458 17.7067 560.458 19.2467C560.458 20.805 561.724 22.07 563.265 22.07H571.261V30.045C571.261 31.6033 572.508 32.8683 574.067 32.8683C575.626 32.8683 576.891 31.6033 576.891 30.045V22.07H584.869C586.428 22.07 587.694 20.805 587.694 19.2467C587.694 17.7067 586.428 16.4417 584.869 16.4417Z" fill="#34335F"/>
<path fill-rule="evenodd" clip-rule="evenodd" d="M751.888 450.743C746.221 450.743 741.636 446.16 741.636 440.495C741.636 434.83 746.221 430.265 751.888 430.265C757.537 430.265 762.122 434.83 762.122 440.495C762.122 446.16 757.537 450.743 751.888 450.743ZM757.464 440.495C757.464 437.415 754.969 434.903 751.888 434.903C748.789 434.903 746.295 437.415 746.295 440.495C746.295 443.593 748.789 446.087 751.888 446.087C754.969 446.087 757.464 443.593 757.464 440.495Z" fill="#A8A8EF"/>
<path fill-rule="evenodd" clip-rule="evenodd" d="M895.73 20.845C890.063 20.845 885.478 16.28 885.478 10.615C885.478 4.95 890.063 0.366669 895.73 0.366669C901.397 0.366669 905.982 4.95 905.982 10.615C905.982 16.28 901.397 20.845 895.73 20.845ZM901.323 10.615C901.323 7.51667 898.811 5.02334 895.73 5.02334C892.63 5.02334 890.136 7.51667 890.136 10.615C890.136 13.695 892.63 16.1883 895.73 16.1883C898.811 16.1883 901.323 13.695 901.323 10.615Z" fill="#A8A8EF"/>
<path fill-rule="evenodd" clip-rule="evenodd" d="M87.2621 308.44C81.595 308.44 77.0283 303.875 77.0283 298.21C77.0283 292.545 81.595 287.962 87.2621 287.962C92.9292 287.962 97.5142 292.545 97.5142 298.21C97.5142 303.875 92.9292 308.44 87.2621 308.44ZM92.8558 298.21C92.8558 295.112 90.3616 292.618 87.2621 292.618C84.1809 292.618 81.6867 295.112 81.6867 298.21C81.6867 301.29 84.1809 303.783 87.2621 303.783C90.3616 303.783 92.8558 301.29 92.8558 298.21Z" fill="#A8A8EF"/>
</svg>
