<svg version="1.1" id="Layer_1" xmlns="http://www.w3.org/2000/svg" xmlns:xlink="http://www.w3.org/1999/xlink" x="0px" y="0px"
	 width="100%" viewBox="0 0 1024 1024" enable-background="new 0 0 1024 1024" xml:space="preserve">
<path fill="#000000" opacity="1.000000" stroke="none" 
	d="
M365.988434,741.660767 
	C368.985779,741.660889 371.485840,741.643372 373.985596,741.665588 
	C381.607269,741.733521 385.120422,744.700134 385.331940,751.223999 
	C385.535461,757.501343 381.747040,760.923889 374.489685,761.416992 
	C360.004059,762.401245 345.492645,762.224365 331.013672,761.911621 
	C309.856720,761.454834 288.721313,762.076355 267.579803,762.332031 
	C259.328430,762.431824 254.068405,758.843811 250.796021,751.535278 
	C247.937943,745.152039 244.678757,738.943420 241.962372,732.503479 
	C240.289429,728.537354 237.819992,727.164490 233.541702,727.262695 
	C224.388443,727.472778 224.705246,728.508911 224.708771,718.350281 
	C224.721924,680.351379 224.663376,642.352173 224.844467,604.354065 
	C224.866608,599.706726 223.666199,597.907471 218.819916,596.821655 
	C188.327148,589.989990 165.672043,564.050232 164.046982,532.820251 
	C163.188400,516.320190 168.354706,500.991211 179.235321,487.952209 
	C191.346756,473.438171 206.393036,464.053680 225.184433,461.140106 
	C230.200043,460.362427 235.312592,460.209991 241.172012,459.701843 
	C231.428696,447.590057 220.163956,437.813080 211.506119,425.151306 
	C216.613220,421.619751 222.086761,420.525696 227.614563,419.693817 
	C240.041107,417.823822 252.562180,418.707947 265.037994,418.764130 
	C269.406189,418.783783 271.969147,417.415955 274.340851,413.752197 
	C292.526489,385.659637 318.690399,371.774414 351.955048,371.702728 
	C434.091095,371.525787 516.227722,371.629578 598.364136,371.638367 
	C601.369751,371.638672 604.363342,371.686981 607.243652,370.662415 
	C616.047668,367.530579 625.190674,367.268341 634.361755,367.679993 
	C638.998291,367.888123 640.897766,366.423401 640.791077,361.444489 
	C640.505493,348.117889 640.848022,334.779144 640.694275,321.448090 
	C640.321045,289.084198 665.800415,272.786346 692.883972,276.375122 
	C704.835999,277.958862 716.055054,282.358734 727.912903,284.018646 
	C737.256104,285.326569 746.109924,285.294800 752.779175,276.735046 
	C755.712524,272.970276 760.491150,272.885437 764.582458,275.443970 
	C768.609009,277.961945 770.491577,283.487244 768.414917,288.241852 
	C763.926514,298.518158 755.246033,303.171021 744.762756,305.343292 
	C729.613464,308.482483 715.426514,303.815125 701.097717,300.187195 
	C692.341064,297.970093 683.629822,295.990753 674.807495,300.152039 
	C667.286926,303.699310 663.454529,309.487976 662.986084,318.304901 
	C668.415527,315.685059 673.528076,313.624634 679.088989,312.597168 
	C692.923828,310.041046 705.829773,313.771790 718.674255,317.925476 
	C731.945862,322.217224 744.642090,328.359528 758.661865,330.219482 
	C764.598145,331.007019 770.363403,330.869659 775.047180,326.447540 
	C780.027466,321.745514 785.006592,320.862823 789.169678,324.159088 
	C792.856995,327.078644 793.736938,333.889191 790.805603,338.862183 
	C786.068237,346.899017 778.215698,349.914459 769.585754,351.318542 
	C755.069275,353.680328 741.625732,349.304352 728.223022,344.553253 
	C716.328735,340.336853 704.729797,335.004944 691.944763,333.856873 
	C678.983765,332.693054 662.575623,340.001678 663.192078,357.447540 
	C663.619263,369.538239 662.341370,367.468353 673.254150,367.633728 
	C679.085999,367.722107 684.921021,367.714691 690.753235,367.638916 
	C701.365845,367.501099 711.878174,367.849884 722.430176,364.952667 
	C736.483276,361.094177 750.087219,365.313904 763.356323,370.045349 
	C773.992310,373.837921 784.101257,379.111816 795.403748,381.028534 
	C803.095581,382.332886 810.257874,382.071503 816.559387,376.635193 
	C820.029907,373.641235 824.097900,373.048737 828.082397,375.677124 
	C832.049194,378.293793 832.968628,382.318634 832.058289,386.702026 
	C830.979431,391.896942 827.800415,395.589142 823.172241,398.162598 
	C809.965515,405.506165 796.289185,404.205383 782.429016,400.596893 
	C773.689270,398.321472 765.482300,394.650024 757.147522,391.294708 
	C755.052124,390.451172 753.037842,389.008484 750.506836,389.668549 
	C749.528442,391.451721 750.630432,392.925049 751.191040,394.402313 
	C753.370972,400.147217 754.157898,406.013367 752.682007,412.027557 
	C751.992981,414.835480 753.086060,416.321960 755.729309,416.513763 
	C773.742371,417.820801 781.248291,438.417328 775.690186,453.987183 
	C774.982483,455.969574 773.530762,457.777710 774.110596,460.525513 
	C776.849487,460.525513 779.650330,460.787079 782.389465,460.486420 
	C824.227112,455.894165 858.863831,487.975494 862.594299,524.865967 
	C865.745422,556.026855 841.251160,587.826111 813.271729,595.282410 
	C801.317261,598.468201 801.338928,598.541748 801.339294,610.973022 
	C801.340271,647.638672 801.249329,684.304810 801.445068,720.969421 
	C801.471680,725.960571 800.155945,728.241272 795.037659,727.342590 
	C789.500549,726.370300 786.531189,728.926086 784.487000,733.952026 
	C781.793091,740.575623 778.477478,746.949036 775.363159,753.398193 
	C772.746765,758.816223 768.782288,761.487793 762.346985,761.563843 
	C752.196655,761.683716 742.062988,761.861755 731.914490,761.431091 
	C727.265625,761.233826 724.039185,759.170044 721.897827,755.171509 
	C718.114136,748.106506 715.065063,740.691711 712.421326,733.166870 
	C710.834900,728.651917 708.567505,727.197998 703.773376,727.208374 
	C630.275757,727.367615 556.777710,727.318787 483.279755,727.321106 
	C430.614594,727.322754 377.949402,727.331909 325.284241,727.329407 
	C314.813690,727.328918 312.565491,729.636292 312.221313,741.661194 
	C329.985138,741.661194 347.738068,741.661194 365.988434,741.660767 
M547.810974,501.225067 
	C549.780823,499.985748 551.610596,498.344818 553.752136,497.598145 
	C557.243835,496.380768 558.195435,494.314301 557.838257,490.779724 
	C557.466431,487.099518 557.780212,482.547424 560.209473,480.307343 
	C567.119202,473.935577 564.180725,468.085358 561.947693,460.795593 
	C556.890686,444.287109 566.736450,427.498901 583.995117,421.367828 
	C587.877075,419.988770 589.491333,418.563934 587.927979,414.233154 
	C586.397095,409.992126 586.276550,405.440063 587.168701,400.910095 
	C588.638000,393.449493 588.538086,393.346863 580.929077,393.346008 
	C504.438538,393.337524 427.948029,393.351410 351.457489,393.331207 
	C337.223511,393.327423 324.181488,397.274170 312.355438,405.099976 
	C306.999725,408.644073 301.922699,412.598938 298.265839,418.081116 
	C299.877960,419.489960 301.410767,418.944275 302.844788,418.897186 
	C321.234131,418.293518 338.672211,413.534302 355.294647,405.995148 
	C360.047546,403.839417 361.605652,405.205170 363.494843,409.180328 
	C375.593689,434.638336 386.115204,460.718445 394.145752,487.738739 
	C399.001526,504.076935 402.031555,520.721497 399.071075,537.893188 
	C398.162537,543.163086 399.239532,544.584900 404.527313,544.658203 
	C412.524780,544.769226 420.527344,544.581604 428.522461,544.758972 
	C431.893524,544.833801 434.390808,543.736023 437.076904,541.656006 
	C461.286560,522.908752 488.400269,514.915833 518.920410,520.389343 
	C525.245422,521.523682 531.488647,523.113586 538.147278,524.576477 
	C539.566223,516.064758 540.418335,507.629395 547.810974,501.225067 
M685.162720,653.673096 
	C682.029114,654.004517 680.737366,655.920837 680.016968,658.866516 
	C678.437134,665.326843 676.722229,671.768127 674.705566,678.103638 
	C672.594666,684.735046 669.914185,686.537109 662.934692,686.587524 
	C660.279236,686.606750 657.559937,686.555542 654.973633,686.027588 
	C630.539795,681.039490 607.747314,672.094604 587.563354,657.213562 
	C583.716858,654.377625 579.809875,652.641235 575.117004,653.410767 
	C569.355896,654.355530 563.644775,653.526855 557.907410,653.513062 
	C480.253174,653.326233 402.598267,653.427124 324.943695,653.323547 
	C320.551178,653.317688 319.116882,654.703491 319.198547,659.058899 
	C319.429718,671.387756 319.302032,683.723389 319.302979,696.056396 
	C319.303558,703.694702 319.293152,703.718323 326.826111,703.719360 
	C417.823975,703.731689 508.821838,703.736877 599.819702,703.743042 
	C633.485596,703.745300 667.151855,703.678650 700.817078,703.827026 
	C705.250916,703.846558 707.035400,702.737732 706.927368,697.975220 
	C706.640198,685.315430 706.754883,672.644165 706.867493,659.978943 
	C706.905090,655.753967 705.206299,653.912842 700.932678,653.964844 
	C695.940735,654.025635 690.944214,653.712830 685.162720,653.673096 
M751.500000,703.871155 
	C758.329529,703.832886 765.159241,703.809387 771.988586,703.752075 
	C778.643860,703.696167 778.655579,703.680908 778.655945,697.114014 
	C778.658081,658.798767 778.724487,620.483154 778.558228,582.168640 
	C778.538757,577.677612 779.756409,576.062439 784.358459,576.084961 
	C793.345398,576.128845 802.293396,575.679199 810.732849,571.762756 
	C829.501709,563.052795 838.747742,546.885803 838.441345,530.130859 
	C838.005676,506.306488 816.530762,484.870972 792.486084,483.440094 
	C760.948975,481.563324 732.417908,506.749878 729.594849,539.442444 
	C727.852356,559.620728 729.275879,580.058777 728.927612,600.374207 
	C728.376587,632.516296 728.935730,664.650513 729.177246,696.787659 
	C729.229919,703.793091 729.273254,703.793579 736.506958,703.817444 
	C741.171387,703.832825 745.835754,703.845459 751.500000,703.871155 
M288.406860,703.796326 
	C296.996246,703.683777 297.028625,703.683716 297.017303,695.003174 
	C296.953796,646.349854 296.653717,597.695251 296.940796,549.044067 
	C297.020538,535.531982 293.453003,523.535278 286.783630,512.061462 
	C274.911682,491.637390 249.945755,479.641785 227.197433,484.512573 
	C208.297195,488.559448 195.206070,499.825897 189.939453,518.813660 
	C184.926712,536.886169 190.667725,552.039429 204.356628,564.166504 
	C213.650574,572.400024 224.770020,576.273376 237.380371,576.109985 
	C247.285065,575.981506 247.282227,576.301880 247.284821,586.332336 
	C247.294464,623.656128 247.371353,660.980103 247.238571,698.303345 
	C247.222977,702.685974 248.529175,704.085571 252.943283,703.969238 
	C264.432312,703.666504 275.933472,703.826050 288.406860,703.796326 
M370.500061,565.375854 
	C354.847107,565.394043 339.193329,565.504700 323.541779,565.365112 
	C319.654846,565.330444 319.220947,567.339050 319.243561,570.380554 
	C319.330261,582.044739 319.337555,593.709656 319.333160,605.374268 
	C319.332062,608.269531 320.090515,610.952271 321.230072,613.567932 
	C327.093628,627.026917 338.048706,632.996704 352.046875,633.561340 
	C364.358185,634.057983 376.705231,633.668701 389.036499,633.672241 
	C395.798676,633.674255 395.798676,633.675781 395.868988,626.698914 
	C395.971313,616.545410 395.971313,616.545532 406.265900,616.782715 
	C406.765625,616.794189 407.266479,616.823975 407.765137,616.804138 
	C410.319916,616.702209 411.356293,618.003906 411.324585,620.466858 
	C411.283875,623.632080 411.343231,626.798645 411.357452,629.964600 
	C411.365326,631.716919 411.556213,633.134644 413.780121,633.653198 
	C422.616516,635.713318 425.584778,633.580200 425.781555,624.787476 
	C425.803894,623.787964 425.907196,622.786926 425.871918,621.790161 
	C425.773407,619.008240 426.811096,617.765991 429.847778,617.364319 
	C441.256866,615.854919 441.280365,615.754456 441.334686,627.142822 
	C441.336273,627.476074 441.377136,627.815186 441.330811,628.141785 
	C440.693024,632.637512 442.808960,633.831604 447.071991,633.761353 
	C460.399536,633.541748 473.732880,633.668274 487.063995,633.676941 
	C498.187134,633.684143 498.187286,633.694336 498.689636,622.523132 
	C498.712067,622.023743 498.743652,621.524109 498.744141,621.024597 
	C498.746246,618.763977 499.897400,617.950439 502.124115,617.653381 
	C514.004883,616.068726 513.997253,616.010986 514.192871,628.154358 
	C514.195557,628.320984 514.215149,628.490051 514.194275,628.653870 
	C513.685791,632.651672 515.554504,633.830139 519.396667,633.745300 
	C528.890442,633.535767 538.392212,633.707703 547.890198,633.646057 
	C549.800171,633.633667 552.316345,634.425110 553.307617,632.194031 
	C554.391663,629.753967 552.140320,628.268921 550.633484,626.795410 
	C542.535828,618.877075 534.382690,611.015503 526.274414,603.107971 
	C513.949768,591.088379 500.809052,580.139221 485.726959,571.664062 
	C478.330902,567.507935 470.660217,565.164795 461.984131,565.242615 
	C431.824799,565.513245 401.661743,565.365723 370.500061,565.375854 
M613.100830,557.393372 
	C607.885254,551.210571 601.841675,546.400635 593.252014,546.543701 
	C582.541443,546.722046 572.043335,545.054138 561.545166,543.310669 
	C557.053528,542.564819 552.579224,541.870422 546.878113,542.437683 
	C548.710022,543.974426 549.775085,544.778076 550.738159,545.689514 
	C562.370850,556.697998 571.549500,569.490356 578.291992,584.003052 
	C581.196594,590.255005 580.631104,592.737427 576.278076,595.003357 
	C572.167603,597.143188 569.976929,596.131104 566.482605,590.443054 
	C565.523438,588.881775 564.639709,587.274109 563.678345,585.714294 
	C553.830505,569.736694 541.721619,555.934875 525.145630,546.646362 
	C509.107056,537.658997 492.524292,536.643921 474.568695,543.931030 
	C475.993500,544.564026 476.527985,544.892517 477.108765,545.046448 
	C501.088379,551.402893 519.972351,565.970703 537.543762,582.614136 
	C554.712708,598.876465 570.664185,616.447083 589.288208,631.143616 
	C607.660583,645.641663 627.770386,656.689880 650.859741,661.857910 
	C654.621155,662.699829 655.904053,661.581299 656.905457,658.259583 
	C659.166687,650.758545 660.622986,643.096313 662.157837,635.434875 
	C667.232239,610.104248 665.119446,585.454895 655.342896,561.514526 
	C652.606140,554.813049 644.539673,552.180420 637.235107,555.944153 
	C642.221619,563.308777 646.322998,571.129883 650.544128,579.160339 
	C647.860779,579.649719 647.246155,577.733093 646.027954,576.782654 
	C644.133240,575.304443 642.638672,572.961792 639.570679,574.242798 
	C636.573792,575.494202 636.785767,578.205688 636.616577,580.593445 
	C636.322449,584.744446 636.401184,588.920471 636.230347,593.082214 
	C636.161255,594.763733 636.528931,596.758850 633.700745,597.916809 
	C629.263123,583.240601 622.939209,569.789001 613.100830,557.393372 
M376.846191,532.483032 
	C379.101410,518.690430 376.629547,505.398438 372.833740,492.181061 
	C367.009338,471.899811 357.302338,453.044861 351.227814,432.860931 
	C350.915833,431.824341 350.828308,430.488464 348.491547,429.642426 
	C317.287537,442.912720 283.883820,438.643311 250.509567,436.597473 
	C256.750366,442.892120 263.720184,447.516174 271.549561,450.839325 
	C284.548706,456.356842 297.889374,461.066498 310.567078,467.345276 
	C312.356873,468.231628 314.480927,468.934174 315.056976,471.007507 
	C315.910675,474.080200 318.097534,476.114288 320.044006,478.349121 
	C324.649506,483.637024 328.858337,489.207855 332.253845,495.352112 
	C339.541748,508.539642 342.718048,522.927063 344.266754,537.728943 
	C344.933319,544.099976 345.311432,544.698181 351.806366,544.734985 
	C356.134949,544.759521 360.463745,544.743530 364.792450,544.751831 
	C374.557465,544.770569 374.831970,544.544861 376.631317,534.838440 
	C376.721771,534.350342 376.710358,533.843384 376.846191,532.483032 
M683.283813,417.744781 
	C688.586914,417.561584 693.883301,416.440002 699.195007,417.818298 
	C701.533081,418.425018 703.742432,418.956512 702.613647,422.703857 
	C706.798584,422.703857 710.615601,422.569031 714.419617,422.733734 
	C721.013977,423.019257 725.607605,419.855469 728.639282,414.387054 
	C731.753540,408.769775 731.794128,403.003662 728.501221,397.292480 
	C724.425659,390.224121 717.822449,388.219757 710.307617,387.990204 
	C705.182922,387.833649 700.117554,388.510803 694.918274,388.134705 
	C672.144104,386.487640 649.314026,387.606171 626.506348,387.527985 
	C623.173767,387.516571 619.988342,388.836975 617.004822,390.378784 
	C610.728638,393.622101 607.451660,399.840668 608.237854,406.903687 
	C608.952759,413.326385 614.227417,420.494415 620.391357,421.260010 
	C631.285583,422.613037 642.450073,423.270996 653.240601,421.356598 
	C662.916687,419.639893 672.448669,417.531860 683.283813,417.744781 
M649.500061,442.327057 
	C631.184631,442.732178 612.915894,441.239105 594.617859,440.985779 
	C586.913208,440.879089 581.830872,445.409973 581.427429,452.345825 
	C581.052185,458.796661 586.109253,464.999268 593.005127,465.673096 
	C605.391724,466.883514 617.812317,467.776093 630.231079,468.620239 
	C645.821594,469.679962 661.418884,470.672607 677.025391,471.449890 
	C682.378967,471.716492 687.872498,472.570923 693.057617,470.774445 
	C693.101135,469.934906 693.207336,469.581207 693.116516,469.288788 
	C692.920532,468.658356 692.675781,468.030762 692.359375,467.452057 
	C688.985596,461.281433 689.201843,455.019867 691.950012,448.739075 
	C694.351807,443.249756 693.890076,442.385468 687.961548,442.360077 
	C675.474548,442.306641 662.987305,442.334015 649.500061,442.327057 
M701.049377,498.126923 
	C705.447021,496.937317 709.602600,498.264893 713.801514,499.301331 
	C716.080933,499.864014 718.399780,500.393036 720.149841,498.002045 
	C724.570496,491.962280 729.698059,486.520660 734.898438,481.106750 
	C732.662903,478.892944 730.443359,479.865448 728.273132,480.567566 
	C718.929443,483.590149 709.601929,486.662781 700.251770,489.665192 
	C695.656189,491.140869 690.869202,493.329590 686.201050,492.732513 
	C672.168152,490.937775 658.086365,489.999939 643.996155,489.001892 
	C622.936035,487.510162 601.882629,485.925232 580.824585,484.404572 
	C578.095032,484.207458 575.711060,484.764374 575.418152,488.105530 
	C575.144348,491.228333 575.375549,494.238739 578.954956,495.507812 
	C580.357666,496.005188 581.845154,496.413574 583.320496,496.531433 
	C592.923035,497.298645 602.538330,497.908508 612.138855,498.698883 
	C622.238586,499.530334 632.310364,500.885895 642.423950,501.315338 
	C653.278076,501.776276 664.136292,504.882385 675.044922,501.703705 
	C675.647217,501.528198 676.570618,501.413910 676.967468,501.735901 
	C680.727234,504.786621 684.524475,502.692596 688.229919,501.811157 
	C692.269958,500.850037 696.225098,499.531799 701.049377,498.126923 
M561.314636,522.563904 
	C563.621033,522.848755 565.921692,523.303650 568.235107,523.382202 
	C572.736145,523.534973 576.813477,526.475708 581.424500,525.489563 
	C590.152893,523.622742 598.309021,525.484558 606.046387,529.357300 
	C609.246033,530.958740 612.504761,532.130066 615.965576,532.470520 
	C634.314331,534.275085 652.669006,536.037292 671.044495,537.534546 
	C674.140747,537.786865 677.744324,539.628296 680.277466,537.915283 
	C683.309937,535.864746 680.959229,531.670959 681.915588,528.552551 
	C682.249207,527.464905 682.804993,526.353821 681.850952,524.585022 
	C676.408020,522.695251 670.181824,523.031189 664.147766,522.435242 
	C650.416504,521.079163 636.639404,520.194885 622.892944,518.982666 
	C604.021362,517.318542 585.166382,515.464294 566.291809,513.836182 
	C561.427673,513.416626 558.746887,517.655457 561.314636,522.563904 
M695.297791,565.351929 
	C692.301086,565.358948 689.304260,565.359497 686.307617,565.374695 
	C682.678528,565.393127 681.035034,566.797241 682.305542,570.661804 
	C688.243774,588.724304 688.403015,607.229187 686.421265,625.892578 
	C686.285034,627.176025 686.068359,628.607605 687.551941,629.415283 
	C697.029480,627.693359 706.381897,617.124634 706.678589,607.159485 
	C706.985596,596.847412 706.913635,586.517029 706.734680,576.199341 
	C706.540161,564.983093 708.745850,566.432800 695.297791,565.351929 
M302.480316,492.062378 
	C312.206696,505.547760 318.573578,520.326050 319.293304,537.129333 
	C319.622559,544.815613 319.385590,544.825745 328.280273,543.379761 
	C328.743439,525.242432 324.388367,508.381531 313.010071,494.010101 
	C307.619629,487.201691 300.983490,480.910889 291.689728,479.011963 
	C293.981018,484.302094 299.028992,487.032684 302.480316,492.062378 
M710.551208,453.261292 
	C710.213013,454.011810 709.635193,454.743073 709.573242,455.515747 
	C708.834351,464.730347 709.838257,464.269653 716.780151,461.920349 
	C727.616272,458.253113 738.424133,454.502197 749.268250,450.859131 
	C751.207581,450.207611 752.988770,449.306183 754.372192,447.887695 
	C756.516846,445.688751 755.491516,443.264557 754.387695,440.968750 
	C753.612000,439.355316 752.548889,438.186188 750.478271,438.929932 
	C737.387268,443.631897 723.773071,446.839172 710.551208,453.261292 
M745.578003,727.298584 
	C743.246155,727.314514 740.913757,727.306763 738.582581,727.356018 
	C737.382080,727.381470 736.251465,727.634949 735.700073,728.909119 
	C734.440186,731.819824 739.480957,740.917725 742.721252,741.582642 
	C752.664001,743.622803 759.250488,738.907288 761.306519,727.870178 
	C756.418457,726.740112 751.448303,727.527893 745.578003,727.298584 
M700.391846,543.730225 
	C702.889221,543.469849 706.416199,544.467590 706.515198,540.490295 
	C706.664795,534.476379 707.792908,528.633667 708.664307,522.733337 
	C709.111633,519.704651 707.485840,518.979370 704.749390,519.489197 
	C695.304871,521.248718 694.297729,522.413757 694.312378,531.968567 
	C694.315918,534.295410 694.479065,536.635193 694.289795,538.946228 
	C693.964722,542.915771 695.565552,544.562988 700.391846,543.730225 
M285.834656,740.609924 
	C289.396881,738.434937 289.423737,734.455872 290.370758,731.092529 
	C291.022186,728.778992 289.177521,727.448547 286.832458,727.413391 
	C281.043427,727.326843 275.253113,727.314819 269.463257,727.303040 
	C267.608154,727.299255 266.244720,727.823914 266.320557,730.129639 
	C266.499512,735.572205 272.738708,741.661255 278.209259,741.674805 
	C280.536530,741.680542 282.841461,741.590271 285.834656,740.609924 
z"/>
<path fill="#000000" opacity="1.000000" stroke="none" 
	d="
M266.848297,331.074280 
	C253.439407,309.685638 250.332397,286.511597 252.320755,262.229980 
	C252.932068,254.764709 253.920746,247.390381 255.508560,240.067276 
	C256.157990,237.072098 257.389282,236.664902 260.024200,237.692459 
	C288.499969,248.797379 311.664062,266.218384 324.634064,294.587067 
	C334.196259,315.501953 333.639954,336.722076 322.343262,358.778839 
	C313.057373,339.856140 307.039398,320.325836 292.779877,304.577667 
	C291.457458,308.468658 292.300934,311.458374 293.027863,314.431122 
	C296.652740,329.255402 303.475769,342.791138 309.959015,356.466797 
	C310.786316,358.211884 312.225037,359.803314 311.724579,362.587097 
	C291.904266,359.032745 277.655365,347.864441 266.848297,331.074280 
z"/>
<path fill="#000000" opacity="1.000000" stroke="none" 
	d="
M562.000000,761.976318 
	C533.194885,761.832520 504.883881,761.289246 476.586914,761.705200 
	C459.756897,761.952637 442.958221,761.289673 426.143494,761.336060 
	C420.291199,761.352173 416.977814,758.120972 416.684326,752.667175 
	C416.352966,746.509094 419.397644,742.558533 425.183807,741.785461 
	C426.659912,741.588257 428.176941,741.669373 429.675171,741.669312 
	C512.129089,741.665222 594.583069,741.665344 677.036987,741.672485 
	C678.700928,741.672607 680.392517,741.585266 682.023804,741.840942 
	C687.466003,742.693970 690.308594,746.021484 690.339844,751.355530 
	C690.369019,756.340332 687.163696,760.173706 682.286865,761.321472 
	C675.829590,762.841248 669.340088,761.535706 662.871765,761.668579 
	C646.895264,761.996765 630.910217,761.931519 614.928467,761.966675 
	C597.452393,762.005127 579.976196,761.978638 562.000000,761.976318 
z"/>
<path fill="#000000" opacity="1.000000" stroke="none" 
	d="
M370.115601,334.145569 
	C376.359070,323.937683 382.424866,314.042511 385.196869,302.464661 
	C370.948303,313.019257 363.023468,328.540527 353.363678,344.153198 
	C349.088562,334.239105 347.830750,325.193390 349.169281,315.892426 
	C353.156128,288.188507 369.936829,269.810272 393.249420,256.405853 
	C401.795624,251.491943 410.997040,248.045410 420.422455,245.178055 
	C423.633759,244.201141 425.682465,244.919785 426.125214,248.453461 
	C428.648438,268.591553 427.874664,288.445953 418.628784,306.937469 
	C408.886475,326.421844 393.948578,340.189636 372.305756,345.695404 
	C371.661652,345.859283 371.036743,346.149750 370.385040,346.223389 
	C367.956696,346.497803 365.520905,346.706299 362.142334,347.030151 
	C364.977844,342.443970 367.449097,338.446899 370.115601,334.145569 
z"/>
<path fill="#000000" opacity="1.000000" stroke="none" 
	d="
M165.980652,330.054688 
	C174.097229,326.257904 182.523071,327.422089 190.697067,327.962524 
	C202.860260,328.766785 214.716217,331.582855 225.804428,336.911560 
	C246.143707,346.686157 260.242584,361.680298 264.876404,384.372650 
	C265.558472,387.712646 265.637787,391.175690 266.122314,395.783234 
	C252.053375,385.845184 239.580612,375.436432 224.074738,369.825653 
	C233.213211,383.489777 247.006699,392.035614 260.608643,402.419434 
	C252.622284,404.920715 245.791473,405.804779 238.617767,404.905853 
	C204.280396,400.602966 184.518921,378.902924 171.704407,348.956360 
	C169.161041,343.012695 166.619232,337.004272 165.980652,330.054688 
z"/>
<path fill="#000000" opacity="1.000000" stroke="none" 
	d="
M523.536560,303.526093 
	C528.147339,310.150146 527.551392,317.068054 525.635681,323.858459 
	C524.271545,328.693817 519.103210,331.434692 513.328918,331.318756 
	C507.927704,331.210266 504.372162,328.536713 502.662018,323.286255 
	C501.131134,318.586212 501.161530,313.706238 502.091461,309.018829 
	C503.998505,299.405914 514.844421,296.564880 523.536560,303.526093 
z"/>
<path fill="#000000" opacity="1.000000" stroke="none" 
	d="
M556.933716,306.903168 
	C565.553589,308.856354 569.287598,312.948456 569.149963,319.862091 
	C568.984131,328.192108 563.902710,335.247009 557.030640,336.688141 
	C551.224548,337.905762 545.572998,334.652679 543.676392,329.001282 
	C540.321472,319.004395 546.069946,309.113708 556.933716,306.903168 
z"/>
<path fill="#000000" opacity="1.000000" stroke="none" 
	d="
M483.608521,314.664307 
	C485.128693,318.053406 486.328308,321.136078 486.297119,324.546326 
	C486.250671,329.631897 483.274750,334.226562 478.889282,335.953552 
	C473.890228,337.922241 468.252350,336.663483 464.806091,332.636566 
	C461.165802,328.382874 459.904877,323.177612 460.098083,317.803223 
	C460.275146,312.877808 464.377350,308.835114 469.198730,307.832794 
	C475.410553,306.541504 479.673553,308.489014 483.608521,314.664307 
z"/>
<path fill="#000000" opacity="1.000000" stroke="none" 
	d="
M592.203979,352.528931 
	C584.102539,354.978485 576.569031,346.879181 579.110352,337.561584 
	C581.141541,330.114716 588.353394,325.575287 595.974670,326.700439 
	C601.790161,327.558990 605.726257,333.931488 603.838379,339.981445 
	C602.032043,345.770111 598.629089,350.357117 592.203979,352.528931 
z"/>
<path fill="#000000" opacity="1.000000" stroke="none" 
	d="
M428.998566,329.760498 
	C439.277710,325.182861 449.982269,331.281250 450.430969,341.556335 
	C450.769714,349.313293 446.268677,353.911957 438.540771,353.322327 
	C431.867889,352.813171 428.400482,348.110626 425.950439,342.585968 
	C423.849762,337.849152 424.466003,333.474518 428.998566,329.760498 
z"/>
<path fill="#000000" opacity="1.000000" stroke="none" 
	d="
M502.598877,274.209412 
	C499.751831,270.242767 499.936340,266.425629 502.055664,262.748505 
	C503.802612,259.717499 506.944397,258.754517 510.176208,259.009766 
	C513.625793,259.282257 516.608521,260.865570 517.774536,264.450226 
	C518.971069,268.128571 518.675171,271.755951 515.814209,274.597015 
	C513.138000,277.254608 509.751038,277.887512 506.187439,276.610687 
	C504.984406,276.179657 503.965729,275.234070 502.598877,274.209412 
z"/>
<path fill="#000000" opacity="1.000000" stroke="none" 
	d="
M536.702515,270.822449 
	C537.131226,264.291351 540.130676,260.904663 545.201172,260.790924 
	C549.723267,260.689484 553.702148,264.031128 554.267639,268.405304 
	C554.922241,273.469025 551.690491,277.784576 546.453491,278.840240 
	C541.793579,279.779572 538.390503,277.122437 536.702515,270.822449 
z"/>
<path fill="#000000" opacity="1.000000" stroke="none" 
	d="
M585.951050,274.029602 
	C589.087830,277.900513 589.142822,281.749725 586.744385,285.414978 
	C584.778931,288.418610 581.649109,289.689850 578.058350,288.968140 
	C574.305115,288.213837 571.864380,285.813416 570.971924,282.086426 
	C570.119080,278.524963 571.108154,275.293274 574.139221,273.277649 
	C577.928467,270.757843 581.934753,270.790924 585.951050,274.029602 
z"/>
<path fill="#000000" opacity="1.000000" stroke="none" 
	d="
M470.808197,283.398224 
	C465.332733,280.550842 463.550629,276.262054 465.524048,271.525696 
	C467.287384,267.293610 471.905304,265.379730 476.760803,266.868683 
	C480.750153,268.092010 482.947968,271.882263 482.212799,276.271057 
	C481.318939,281.607239 477.591278,284.043579 470.808197,283.398224 
z"/>
<path fill="#000000" opacity="1.000000" stroke="none" 
	d="
M614.432312,304.666565 
	C610.090149,307.149841 606.282166,306.641296 603.211670,303.364349 
	C600.406311,300.370483 600.504883,296.525391 602.140137,293.072571 
	C603.699768,289.779510 606.857788,288.428986 610.477112,288.762085 
	C613.901917,289.077271 616.410095,290.991486 617.678711,294.164612 
	C619.312073,298.250031 617.939941,301.636108 614.432312,304.666565 
z"/>
<path fill="#000000" opacity="1.000000" stroke="none" 
	d="
M402.748047,535.883911 
	C400.322357,533.525146 400.461273,530.978577 401.884491,527.351318 
	C403.315643,530.676025 403.913910,533.158691 402.748047,535.883911 
z"/>
<path fill="#000000" opacity="1.000000" stroke="none" 
	d="
M778.583130,550.615784 
	C771.816467,547.282715 770.648926,540.242065 767.258118,534.923279 
	C766.450134,533.655884 768.682434,530.442505 769.529846,528.129089 
	C773.531494,517.204285 783.420471,511.627411 793.816223,514.309875 
	C802.027161,516.428589 807.233276,521.693848 808.975708,529.788513 
	C810.809509,538.307983 807.274536,545.180908 800.354370,550.085083 
	C793.502441,554.940796 786.207031,555.209534 778.583130,550.615784 
z"/>
<path fill="#000000" opacity="1.000000" stroke="none" 
	d="
M258.071625,531.458008 
	C258.392181,542.862061 251.284317,551.867615 241.248062,553.301575 
	C230.285446,554.867859 220.970352,548.864075 218.473602,538.623047 
	C215.902130,528.075623 221.702271,517.788208 231.965027,514.693970 
	C242.450165,511.532684 252.877899,516.596680 256.705902,526.746826 
	C257.231659,528.140930 257.561737,529.608948 258.071625,531.458008 
z"/>
<path fill="#000000" opacity="1.000000" stroke="none" 
	d="
M679.998291,400.666687 
	C686.628784,400.667725 692.759827,400.667725 699.500549,400.667725 
	C697.362732,404.880768 698.399963,407.236816 702.707092,408.123047 
	C704.313843,408.453613 705.059326,409.883850 704.075989,411.908508 
	C703.571167,411.939026 702.829834,412.220032 702.357300,411.977509 
	C693.258362,407.307098 683.323547,407.668732 673.567139,407.363800 
	C663.264709,407.041809 652.939331,407.387054 642.688232,405.972778 
	C641.600220,405.822632 640.306580,406.188324 639.450073,404.682892 
	C652.328552,398.075012 666.145081,401.551147 679.998291,400.666687 
z"/>
<path fill="#000000" opacity="1.000000" stroke="none" 
	d="
M596.256409,456.235107 
	C593.042175,450.138245 594.779968,446.917816 600.933228,446.661865 
	C612.753662,446.170288 624.523926,447.358154 636.319092,447.708832 
	C639.706848,447.809540 641.659729,449.920563 641.815918,453.042206 
	C641.953125,455.785217 640.060120,458.074677 637.317200,458.152069 
	C623.711487,458.535828 610.128357,457.909515 596.256409,456.235107 
z"/>
</svg>