<svg width="110" height="111" viewBox="0 0 110 111" fill="none" xmlns="http://www.w3.org/2000/svg">
<path d="M39.3152 79.5677C39.6371 79.5677 39.9057 79.5658 40.1742 79.5682C40.993 79.5758 41.3704 79.9061 41.3931 80.6324C41.4149 81.3312 41.008 81.7122 40.2284 81.7671C38.6723 81.8767 37.1135 81.857 35.5581 81.8222C33.2854 81.7713 31.015 81.8405 28.7439 81.869C27.8575 81.8801 27.2925 81.4807 26.941 80.667C26.634 79.9564 26.2839 79.2652 25.9921 78.5482C25.8123 78.1067 25.5471 77.9539 25.0875 77.9648C24.1042 77.9882 24.1383 78.1035 24.1386 76.9726C24.1401 72.7422 24.1338 68.5119 24.1532 64.2816C24.1556 63.7642 24.0266 63.5639 23.506 63.443C20.2305 62.6825 17.7968 59.7947 17.6222 56.3179C17.53 54.481 18.085 52.7744 19.2538 51.3228C20.5548 49.707 22.1711 48.6622 24.1897 48.3379C24.7285 48.2513 25.2777 48.2343 25.9072 48.1777C24.8605 46.8294 23.6504 45.7409 22.7204 44.3313C23.269 43.9381 23.857 43.8163 24.4508 43.7237C25.7857 43.5155 27.1307 43.614 28.4709 43.6202C28.9401 43.6224 29.2154 43.4701 29.4702 43.0623C31.4237 39.9348 34.2343 38.3889 37.8077 38.381C46.6309 38.3613 55.4542 38.3728 64.2774 38.3738C64.6003 38.3738 64.9218 38.3792 65.2313 38.2651C66.177 37.9165 67.1592 37.8873 68.1443 37.9331C68.6424 37.9563 68.8464 37.7932 68.835 37.2389C68.8043 35.7553 68.8411 34.2703 68.8246 32.7862C68.7845 29.1832 71.5215 27.3688 74.4309 27.7683C75.7148 27.9446 76.92 28.4345 78.1938 28.6193C79.1974 28.7649 80.1485 28.7613 80.865 27.8084C81.1801 27.3893 81.6934 27.3798 82.1329 27.6647C82.5654 27.945 82.7677 28.5601 82.5446 29.0894C82.0624 30.2335 81.1299 30.7515 80.0038 30.9933C78.3764 31.3428 76.8525 30.8232 75.3132 30.4193C74.3726 30.1724 73.4368 29.9521 72.4891 30.4154C71.6812 30.8103 71.2695 31.4547 71.2192 32.4363C71.8024 32.1446 72.3517 31.9152 72.949 31.8008C74.4352 31.5163 75.8216 31.9316 77.2013 32.394C78.627 32.8718 79.9909 33.5556 81.4969 33.7627C82.1346 33.8504 82.7539 33.8351 83.257 33.3428C83.792 32.8193 84.3269 32.721 84.7741 33.088C85.1702 33.413 85.2647 34.1713 84.9498 34.7249C84.4409 35.6196 83.5974 35.9553 82.6703 36.1116C81.111 36.3746 79.6668 35.8874 78.2271 35.3585C76.9494 34.8891 75.7034 34.2955 74.33 34.1677C72.9377 34.0381 71.1751 34.8517 71.2413 36.794C71.2872 38.14 71.15 37.9096 72.3222 37.928C72.9487 37.9378 73.5755 37.937 74.202 37.9285C75.342 37.9132 76.4713 37.952 77.6048 37.6295C79.1144 37.1999 80.5758 37.6697 82.0012 38.1964C83.1437 38.6187 84.2296 39.2058 85.4438 39.4192C86.27 39.5644 87.0394 39.5353 87.7163 38.9301C88.0892 38.5968 88.5261 38.5308 88.9542 38.8234C89.3803 39.1147 89.4791 39.5628 89.3813 40.0508C89.2654 40.6291 88.9239 41.0402 88.4267 41.3267C87.008 42.1442 85.5389 41.9994 84.05 41.5977C83.1112 41.3444 82.2295 40.9356 81.3342 40.5621C81.1091 40.4682 80.8927 40.3076 80.6209 40.3811C80.5158 40.5796 80.6341 40.7436 80.6944 40.9081C80.9285 41.5476 81.0131 42.2007 80.8545 42.8702C80.7805 43.1828 80.8979 43.3483 81.1819 43.3697C83.1169 43.5152 83.9232 45.8082 83.3261 47.5415C83.2501 47.7622 83.0941 47.9635 83.1564 48.2694C83.4506 48.2694 83.7515 48.2986 84.0457 48.2651C88.54 47.7538 92.2608 51.3254 92.6615 55.4323C93 58.9014 90.3688 62.4416 87.3632 63.2717C86.079 63.6263 86.0813 63.6345 86.0814 65.0185C86.0815 69.1004 86.0717 73.1824 86.0927 77.2642C86.0956 77.8198 85.9543 78.0737 85.4044 77.9737C84.8096 77.8654 84.4907 78.15 84.2711 78.7095C83.9817 79.4469 83.6255 80.1564 83.291 80.8744C83.0099 81.4776 82.584 81.775 81.8927 81.7835C80.8024 81.7968 79.7138 81.8166 78.6236 81.7687C78.1242 81.7467 77.7776 81.517 77.5476 81.0718C77.1412 80.2853 76.8136 79.4598 76.5296 78.6221C76.3592 78.1194 76.1157 77.9576 75.6007 77.9587C67.7054 77.9765 59.8101 77.971 51.9148 77.9713C46.2574 77.9715 40.6 77.9725 34.9426 77.9722C33.8179 77.9722 33.5764 78.229 33.5394 79.5677C35.4476 79.5677 37.3547 79.5677 39.3152 79.5677ZM58.8469 52.8004C59.0585 52.6625 59.255 52.4798 59.4851 52.3967C59.8602 52.2611 59.9624 52.0311 59.924 51.6376C59.8841 51.2279 59.9178 50.7211 60.1788 50.4717C60.921 49.7624 60.6054 49.1111 60.3655 48.2995C59.8222 46.4616 60.8799 44.5926 62.7339 43.9101C63.1509 43.7566 63.3243 43.5979 63.1563 43.1158C62.9919 42.6436 62.9789 42.1369 63.0748 41.6326C63.2326 40.802 63.2219 40.7906 62.4045 40.7905C54.1877 40.7895 45.971 40.7911 37.7542 40.7888C36.2252 40.7884 34.8242 41.2278 33.5538 42.099C32.9785 42.4936 32.4331 42.9339 32.0403 43.5442C32.2135 43.701 32.3781 43.6403 32.5322 43.635C34.5076 43.5678 36.3808 43.038 38.1664 42.1987C38.677 41.9587 38.8444 42.1107 39.0473 42.5533C40.347 45.3875 41.4772 48.2909 42.3399 51.299C42.8615 53.1179 43.187 54.9709 42.869 56.8826C42.7714 57.4693 42.8871 57.6276 43.4551 57.6358C44.3142 57.6481 45.1738 57.6272 46.0327 57.647C46.3948 57.6553 46.6631 57.5331 46.9516 57.3015C49.5523 55.2144 52.4649 54.3246 55.7434 54.934C56.4228 55.0602 57.0935 55.2372 57.8088 55.4001C57.9612 54.4525 58.0527 53.5134 58.8469 52.8004ZM73.6015 69.7722C73.2649 69.8091 73.1261 70.0224 73.0487 70.3504C72.879 71.0696 72.6948 71.7867 72.4781 72.492C72.2514 73.2303 71.9634 73.4309 71.2137 73.4365C70.9284 73.4386 70.6363 73.4329 70.3585 73.3742C67.7338 72.8188 65.2854 71.823 63.1172 70.1663C62.704 69.8506 62.2843 69.6573 61.7801 69.743C61.1613 69.8482 60.5478 69.7559 59.9315 69.7544C51.5897 69.7336 43.2479 69.7448 34.9061 69.7333C34.4342 69.7326 34.2801 69.8869 34.2889 70.3718C34.3137 71.7443 34.3 73.1176 34.3001 74.4907C34.3002 75.341 34.2991 75.3436 35.1083 75.3438C44.8834 75.3451 54.6586 75.3457 64.4338 75.3464C68.0502 75.3466 71.6667 75.3392 75.2831 75.3557C75.7594 75.3579 75.9511 75.2345 75.9395 74.7043C75.9086 73.2949 75.9209 71.8842 75.933 70.4742C75.9371 70.0039 75.7546 69.7989 75.2955 69.8047C74.7593 69.8114 74.2225 69.7766 73.6015 69.7722ZM80.7275 75.3607C81.4612 75.3564 82.1948 75.3538 82.9285 75.3474C83.6434 75.3412 83.6446 75.3395 83.6447 74.6084C83.6449 70.3428 83.652 66.0772 83.6342 61.8117C83.6321 61.3118 83.7629 61.1319 84.2573 61.1345C85.2227 61.1393 86.1839 61.0893 87.0904 60.6533C89.1066 59.6836 90.0999 57.8838 90.0669 56.0185C90.0201 53.3661 87.7133 50.9798 85.1303 50.8205C81.7426 50.6115 78.6777 53.4155 78.3745 57.0551C78.1873 59.3015 78.3402 61.5769 78.3028 63.8385C78.2436 67.4168 78.3036 70.9943 78.3296 74.5721C78.3353 75.352 78.3399 75.352 79.117 75.3547C79.618 75.3564 80.1191 75.3578 80.7275 75.3607ZM30.9812 75.3523C31.9039 75.3398 31.9074 75.3398 31.9062 74.3734C31.8993 68.9569 31.8671 63.5403 31.8979 58.124C31.9065 56.6198 31.5233 55.2842 30.8068 54.0068C29.5315 51.7331 26.8496 50.3976 24.406 50.9399C22.3757 51.3904 20.9694 52.6447 20.4037 54.7585C19.8652 56.7705 20.4819 58.4575 21.9524 59.8076C22.9507 60.7242 24.1452 61.1554 25.4998 61.1372C26.5638 61.1229 26.5635 61.1586 26.5638 62.2753C26.5648 66.4305 26.5731 70.5857 26.5588 74.7408C26.5572 75.2287 26.6975 75.3845 27.1716 75.3716C28.4058 75.3379 29.6413 75.3556 30.9812 75.3523ZM39.7998 59.9422C38.1183 59.9443 36.4368 59.9566 34.7555 59.941C34.3379 59.9372 34.2913 60.1608 34.2937 60.4994C34.3031 61.7979 34.3038 63.0966 34.3034 64.3952C34.3032 64.7175 34.3847 65.0162 34.5071 65.3074C35.137 66.8057 36.3138 67.4703 37.8175 67.5332C39.14 67.5885 40.4664 67.5451 41.791 67.5455C42.5174 67.5458 42.5174 67.5459 42.525 66.7692C42.536 65.6388 42.536 65.6389 43.6418 65.6653C43.6955 65.6665 43.7493 65.6699 43.8029 65.6676C44.0773 65.6563 44.1887 65.8012 44.1853 66.0754C44.1809 66.4278 44.1873 66.7803 44.1888 67.1328C44.1896 67.3279 44.2101 67.4857 44.449 67.5434C45.3983 67.7728 45.7171 67.5353 45.7383 66.5564C45.7407 66.4451 45.7518 66.3337 45.748 66.2227C45.7374 65.913 45.8488 65.7747 46.1751 65.73C47.4006 65.562 47.4032 65.5508 47.409 66.8186C47.4092 66.8557 47.4136 66.8935 47.4086 66.9298C47.3401 67.4303 47.5674 67.5633 48.0253 67.5555C49.457 67.531 50.8893 67.5451 52.3213 67.5461C53.5162 67.5469 53.5162 67.548 53.5702 66.3043C53.5726 66.2487 53.576 66.1931 53.576 66.1375C53.5763 65.8858 53.6999 65.7953 53.9391 65.7622C55.2154 65.5858 55.2146 65.5793 55.2356 66.9312C55.2359 66.9498 55.238 66.9686 55.2357 66.9869C55.1811 67.4319 55.3818 67.5631 55.7946 67.5537C56.8144 67.5303 57.8351 67.5495 58.8554 67.5426C59.0606 67.5412 59.3309 67.6294 59.4373 67.381C59.5538 67.1093 59.312 66.944 59.1501 66.78C58.2802 65.8984 57.4044 65.0232 56.5334 64.1429C55.2094 62.8048 53.7978 61.5858 52.1777 60.6423C51.3832 60.1796 50.5592 59.9187 49.6272 59.9274C46.3874 59.9575 43.1473 59.9411 39.7998 59.9422ZM65.8604 59.0536C65.3002 58.3652 64.651 57.8298 63.7282 57.8457C62.5777 57.8655 61.45 57.6798 60.3222 57.4858C59.8397 57.4027 59.3591 57.3254 58.7467 57.3886C58.9435 57.5596 59.0579 57.6491 59.1613 57.7506C60.4109 58.9761 61.3969 60.4003 62.1212 62.016C62.4332 62.712 62.3725 62.9883 61.9049 63.2406C61.4633 63.4788 61.228 63.3662 60.8526 62.7329C60.7496 62.5591 60.6547 62.3801 60.5514 62.2065C59.4935 60.4277 58.1928 58.8912 56.4121 57.8571C54.6892 56.8566 52.9079 56.7436 50.9791 57.5548C51.1321 57.6253 51.1895 57.6619 51.2519 57.679C53.8279 58.3866 55.8564 60.0085 57.744 61.8613C59.5883 63.6718 61.3018 65.6279 63.3024 67.264C65.276 68.8781 67.4363 70.108 69.9166 70.6834C70.3206 70.7771 70.4584 70.6526 70.566 70.2828C70.8089 69.4477 70.9654 68.5947 71.1302 67.7418C71.6753 64.9218 71.4484 62.1776 70.3982 59.5124C70.1042 58.7663 69.2377 58.4732 68.453 58.8922C68.9887 59.7121 69.4292 60.5828 69.8827 61.4768C69.5944 61.5313 69.5284 61.3179 69.3975 61.2121C69.194 61.0476 69.0335 60.7868 68.7039 60.9294C68.382 61.0687 68.4047 61.3705 68.3865 61.6364C68.3549 62.0985 68.3634 62.5634 68.3451 63.0267C68.3376 63.2139 68.3771 63.436 68.0733 63.565C67.5966 61.9311 66.9173 60.4335 65.8604 59.0536ZM40.4815 56.2803C40.7238 54.7448 40.4583 53.2651 40.0505 51.7936C39.4248 49.5357 38.3821 47.4366 37.7296 45.1896C37.696 45.0742 37.6866 44.9255 37.4356 44.8313C34.0836 46.3086 30.4953 45.8333 26.9102 45.6056C27.5806 46.3063 28.3293 46.8211 29.1704 47.1911C30.5668 47.8053 31.9998 48.3297 33.3617 49.0287C33.554 49.1273 33.7821 49.2056 33.844 49.4364C33.9357 49.7785 34.1706 50.0049 34.3797 50.2537C34.8745 50.8424 35.3266 51.4626 35.6913 52.1466C36.4742 53.6148 36.8154 55.2165 36.9818 56.8643C37.0534 57.5736 37.094 57.6402 37.7917 57.6443C38.2567 57.6471 38.7217 57.6453 39.1867 57.6462C40.2357 57.6483 40.2652 57.6232 40.4584 56.5426C40.4682 56.4882 40.4669 56.4318 40.4815 56.2803ZM73.3996 43.5067C73.9693 43.4863 74.5382 43.3615 75.1088 43.5149C75.36 43.5825 75.5973 43.6416 75.4761 44.0588C75.9256 44.0588 76.3357 44.0438 76.7443 44.0621C77.4527 44.0939 77.9461 43.7417 78.2718 43.1329C78.6063 42.5076 78.6107 41.8656 78.257 41.2298C77.8192 40.4429 77.1098 40.2198 76.3026 40.1942C75.7521 40.1768 75.2079 40.2522 74.6494 40.2103C72.203 40.0269 69.7505 40.1515 67.3005 40.1428C66.9425 40.1415 66.6003 40.2885 66.2798 40.4601C65.6056 40.8212 65.2536 41.5135 65.3381 42.2998C65.4148 43.0148 65.9815 43.8128 66.6436 43.8981C67.8139 44.0487 69.0132 44.122 70.1723 43.9088C71.2118 43.7177 72.2357 43.483 73.3996 43.5067ZM69.7705 46.2434C67.803 46.2885 65.8406 46.1223 63.875 46.0941C63.0473 46.0822 62.5014 46.5867 62.458 47.3588C62.4177 48.077 62.961 48.7675 63.7017 48.8425C65.0323 48.9773 66.3666 49.0766 67.7006 49.1706C69.3754 49.2886 71.0509 49.3991 72.7273 49.4856C73.3024 49.5153 73.8926 49.6104 74.4496 49.4104C74.4542 49.317 74.4656 49.2776 74.4559 49.245C74.4348 49.1749 74.4085 49.105 74.3745 49.0406C74.0121 48.3536 74.0354 47.6565 74.3306 46.9573C74.5886 46.3462 74.539 46.2499 73.9021 46.2471C72.5607 46.2412 71.2193 46.2442 69.7705 46.2434ZM75.308 52.4555C75.7804 52.3231 76.2268 52.4709 76.6779 52.5863C76.9228 52.6489 77.1719 52.7078 77.3599 52.4416C77.8347 51.7692 78.3855 51.1634 78.9442 50.5607C78.704 50.3142 78.4656 50.4225 78.2325 50.5007C77.2288 50.8372 76.2268 51.1792 75.2224 51.5135C74.7287 51.6778 74.2145 51.9215 73.713 51.855C72.2056 51.6552 70.6929 51.5508 69.1793 51.4397C66.917 51.2736 64.6554 51.0971 62.3933 50.9278C62.1001 50.9059 61.844 50.9679 61.8125 51.3399C61.7831 51.6875 61.8079 52.0227 62.1924 52.1639C62.3431 52.2193 62.5029 52.2648 62.6614 52.2779C63.6929 52.3633 64.7258 52.4312 65.7571 52.5192C66.842 52.6118 67.924 52.7627 69.0104 52.8105C70.1764 52.8618 71.3428 53.2076 72.5146 52.8537C72.5793 52.8342 72.6785 52.8215 72.7211 52.8573C73.125 53.1969 73.5329 52.9638 73.931 52.8657C74.3649 52.7587 74.7898 52.6119 75.308 52.4555ZM60.2975 55.1761C60.5452 55.2078 60.7924 55.2584 61.0409 55.2672C61.5244 55.2842 61.9624 55.6115 62.4577 55.5018C63.3953 55.2939 64.2715 55.5012 65.1026 55.9324C65.4464 56.1106 65.7964 56.241 66.1682 56.2789C68.1392 56.4798 70.1109 56.676 72.0849 56.8427C72.4175 56.8708 72.8046 57.0758 73.0767 56.8851C73.4024 56.6568 73.1499 56.1899 73.2527 55.8428C73.2885 55.7217 73.3482 55.598 73.2457 55.4011C72.661 55.1907 71.9922 55.2281 71.344 55.1617C69.869 55.0108 68.389 54.9123 66.9123 54.7774C64.8851 54.5921 62.8597 54.3857 60.8321 54.2044C60.3096 54.1577 60.0216 54.6296 60.2975 55.1761ZM74.6902 59.9396C74.3683 59.9403 74.0464 59.9404 73.7245 59.9421C73.3346 59.9442 73.1581 60.1005 73.2945 60.5307C73.9324 62.5416 73.9495 64.6017 73.7367 66.6794C73.722 66.8223 73.6988 66.9817 73.8581 67.0716C74.8762 66.8799 75.8809 65.7033 75.9127 64.5939C75.9457 63.4459 75.938 62.2958 75.9188 61.1472C75.8979 59.8985 76.1348 60.0599 74.6902 59.9396ZM32.493 51.7804C33.5378 53.2817 34.2218 54.9269 34.2991 56.7976C34.3345 57.6533 34.309 57.6544 35.2645 57.4934C35.3142 55.4742 34.8464 53.5972 33.6241 51.9972C33.0451 51.2392 32.3322 50.5389 31.3339 50.3275C31.58 50.9164 32.1223 51.2204 32.493 51.7804ZM76.3287 47.4607C76.2924 47.5443 76.2303 47.6257 76.2237 47.7117C76.1443 48.7376 76.2522 48.6863 76.9979 48.4247C78.1619 48.0165 79.3229 47.5989 80.4878 47.1933C80.6961 47.1208 80.8875 47.0204 81.0361 46.8625C81.2665 46.6177 81.1563 46.3478 81.0377 46.0922C80.9544 45.9126 80.8402 45.7824 80.6178 45.8652C79.2115 46.3887 77.7491 46.7458 76.3287 47.4607ZM80.0914 77.9688C79.8409 77.9706 79.5903 77.9697 79.3399 77.9752C79.211 77.978 79.0895 78.0062 79.0303 78.1481C78.8949 78.4721 79.4364 79.485 79.7845 79.559C80.8526 79.7861 81.5601 79.2612 81.781 78.0324C81.2559 77.9066 80.722 77.9943 80.0914 77.9688ZM75.2374 57.5325C75.5057 57.5035 75.8846 57.6146 75.8952 57.1718C75.9113 56.5022 76.0324 55.8518 76.1261 55.1949C76.1741 54.8577 75.9995 54.777 75.7055 54.8338C74.691 55.0296 74.5828 55.1593 74.5843 56.2231C74.5847 56.4821 74.6022 56.7426 74.5819 56.9999C74.547 57.4418 74.719 57.6252 75.2374 57.5325ZM30.7049 79.4507C31.0876 79.2086 31.0904 78.7656 31.1922 78.3912C31.2621 78.1336 31.064 77.9855 30.8121 77.9816C30.1902 77.9719 29.5682 77.9706 28.9462 77.9693C28.747 77.9689 28.6005 78.0273 28.6087 78.284C28.6279 78.8899 29.2981 79.5678 29.8858 79.5693C30.1358 79.5699 30.3834 79.5598 30.7049 79.4507Z" fill="white"/>
<path d="M28.6654 33.8579C27.2249 31.4767 26.8912 28.8968 27.1048 26.1936C27.1704 25.3625 27.2767 24.5415 27.4472 23.7262C27.517 23.3928 27.6492 23.3475 27.9323 23.4619C30.9912 24.6981 33.4795 26.6376 34.8728 29.7958C35.9 32.1242 35.8402 34.4866 34.6267 36.9422C33.6292 34.8355 32.9828 32.6613 31.451 30.9081C31.3089 31.3412 31.3995 31.6741 31.4776 32.005C31.867 33.6554 32.5999 35.1623 33.2964 36.6848C33.3853 36.8791 33.5398 37.0562 33.486 37.3661C31.3569 36.9704 29.8263 35.7271 28.6654 33.8579Z" fill="white"/>
<path d="M60.3711 81.8294C57.2768 81.8134 54.2356 81.7529 51.1958 81.7992C49.3879 81.8267 47.5834 81.7529 45.7771 81.7581C45.1484 81.7599 44.7925 81.4002 44.761 80.793C44.7254 80.1074 45.0525 79.6676 45.674 79.5816C45.8326 79.5596 45.9955 79.5686 46.1565 79.5686C55.0138 79.5682 63.8712 79.5682 72.7286 79.569C72.9073 79.569 73.089 79.5593 73.2643 79.5877C73.8489 79.6827 74.1542 80.0532 74.1576 80.647C74.1607 81.2019 73.8164 81.6287 73.2925 81.7565C72.5989 81.9257 71.9017 81.7803 71.2069 81.7951C69.4907 81.8317 67.7735 81.8244 66.0567 81.8283C64.1794 81.8326 62.3021 81.8296 60.3711 81.8294Z" fill="white"/>
<path d="M39.7585 34.1998C40.4292 33.0634 41.0808 31.9618 41.3785 30.6728C39.8479 31.8478 38.9966 33.5758 37.959 35.3139C37.4997 34.2102 37.3646 33.2032 37.5084 32.1677C37.9367 29.0835 39.7393 27.0375 42.2436 25.5452C43.1616 24.9981 44.1501 24.6144 45.1625 24.2952C45.5075 24.1865 45.7276 24.2665 45.7751 24.6599C46.0462 26.9018 45.9631 29.1121 44.9699 31.1708C43.9233 33.3399 42.3187 34.8727 39.9938 35.4856C39.9246 35.5039 39.8574 35.5362 39.7874 35.5444C39.5266 35.575 39.2649 35.5982 38.902 35.6342C39.2066 35.1236 39.472 34.6787 39.7585 34.1998Z" fill="white"/>
<path d="M17.83 33.7444C18.7019 33.3217 19.607 33.4513 20.485 33.5114C21.7916 33.601 23.0652 33.9145 24.2563 34.5077C26.4412 35.5959 27.9558 37.2652 28.4535 39.7915C28.5268 40.1633 28.5353 40.5489 28.5874 41.0618C27.076 39.9554 25.7362 38.7966 24.0705 38.172C25.0522 39.6932 26.5339 40.6446 27.9951 41.8006C27.1372 42.0791 26.4034 42.1775 25.6328 42.0774C21.9442 41.5984 19.8214 39.1825 18.4448 35.8487C18.1716 35.187 17.8986 34.518 17.83 33.7444Z" fill="white"/>
<path d="M56.2393 30.791C56.7346 31.5284 56.6705 32.2986 56.4648 33.0546C56.3182 33.5929 55.763 33.898 55.1427 33.8851C54.5625 33.873 54.1806 33.5754 53.9969 32.9908C53.8324 32.4676 53.8357 31.9243 53.9356 31.4025C54.1405 30.3323 55.3055 30.016 56.2393 30.791Z" fill="white"/>
<path d="M59.8269 31.167C60.7529 31.3844 61.154 31.84 61.1392 32.6097C61.1214 33.537 60.5755 34.3224 59.8373 34.4829C59.2136 34.6184 58.6065 34.2563 58.4028 33.6271C58.0424 32.5142 58.6599 31.4131 59.8269 31.167Z" fill="white"/>
<path d="M51.9501 32.031C52.1134 32.4083 52.2423 32.7515 52.2389 33.1311C52.2339 33.6973 51.9143 34.2088 51.4432 34.4011C50.9062 34.6203 50.3005 34.4801 49.9303 34.0318C49.5393 33.5583 49.4038 32.9788 49.4246 32.3804C49.4436 31.8321 49.8843 31.382 50.4022 31.2705C51.0695 31.1267 51.5274 31.3435 51.9501 32.031Z" fill="white"/>
<path d="M63.6157 36.2464C62.7454 36.5191 61.9361 35.6174 62.2091 34.5801C62.4273 33.7511 63.202 33.2457 64.0207 33.3709C64.6454 33.4665 65.0682 34.176 64.8654 34.8495C64.6714 35.4939 64.3059 36.0046 63.6157 36.2464Z" fill="white"/>
<path d="M46.0838 33.7116C47.188 33.202 48.3379 33.8809 48.3861 35.0248C48.4225 35.8884 47.939 36.4004 47.1088 36.3347C46.392 36.278 46.0196 35.7545 45.7564 35.1395C45.5307 34.6121 45.5969 34.1251 46.0838 33.7116Z" fill="white"/>
<path d="M53.9901 27.5272C53.6843 27.0856 53.7041 26.6607 53.9318 26.2513C54.1194 25.9139 54.4569 25.8066 54.8041 25.8351C55.1747 25.8654 55.4951 26.0417 55.6203 26.4407C55.7489 26.8502 55.7171 27.2541 55.4097 27.5704C55.1223 27.8662 54.7584 27.9367 54.3756 27.7945C54.2464 27.7466 54.1369 27.6413 53.9901 27.5272Z" fill="white"/>
<path d="M57.6536 27.1502C57.6996 26.4231 58.0218 26.046 58.5665 26.0334C59.0523 26.0221 59.4797 26.3941 59.5404 26.8811C59.6108 27.4448 59.2636 27.9252 58.701 28.0428C58.2005 28.1473 57.8349 27.8515 57.6536 27.1502Z" fill="white"/>
<path d="M62.944 27.5072C63.2809 27.9381 63.2868 28.3667 63.0292 28.7747C62.8181 29.1091 62.4819 29.2506 62.0961 29.1703C61.693 29.0863 61.4308 28.8191 61.3349 28.4041C61.2433 28.0077 61.3495 27.6479 61.6751 27.4235C62.0822 27.143 62.5125 27.1466 62.944 27.5072Z" fill="white"/>
<path d="M50.5751 28.5502C49.9869 28.2332 49.7955 27.7557 50.0075 27.2284C50.1969 26.7573 50.693 26.5442 51.2146 26.71C51.6431 26.8462 51.8792 27.2681 51.8002 27.7567C51.7042 28.3508 51.3038 28.622 50.5751 28.5502Z" fill="white"/>
<path d="M66.0035 30.918C65.537 31.1944 65.128 31.1378 64.7981 30.773C64.4968 30.4397 64.5073 30.0116 64.683 29.6272C64.8505 29.2606 65.1898 29.1103 65.5786 29.1474C65.9465 29.1824 66.2159 29.3955 66.3522 29.7488C66.5277 30.2036 66.3803 30.5806 66.0035 30.918Z" fill="white"/>
<path d="M43.264 56.6589C43.0034 56.3964 43.0183 56.1128 43.1712 55.709C43.3249 56.0792 43.3892 56.3556 43.264 56.6589Z" fill="white"/>
<path d="M83.6368 58.299C82.91 57.928 82.7845 57.1441 82.4203 56.552C82.3335 56.4109 82.5733 56.0532 82.6643 55.7956C83.0942 54.5794 84.1565 53.9585 85.2732 54.2571C86.1552 54.493 86.7145 55.0792 86.9017 55.9804C87.0987 56.9288 86.7189 57.694 85.9756 58.2399C85.2395 58.7805 84.4558 58.8104 83.6368 58.299Z" fill="white"/>
<path d="M27.7226 56.1662C27.757 57.4358 26.9935 58.4384 25.9153 58.598C24.7377 58.7724 23.7371 58.104 23.4689 56.9639C23.1926 55.7897 23.8157 54.6444 24.9181 54.2999C26.0445 53.948 27.1646 54.5117 27.5759 55.6417C27.6323 55.7969 27.6678 55.9604 27.7226 56.1662Z" fill="white"/>
<path d="M73.0467 41.6055C73.7589 41.6056 74.4176 41.6056 75.1417 41.6056C74.912 42.0746 75.0234 42.3369 75.4861 42.4356C75.6587 42.4724 75.7388 42.6316 75.6332 42.857C75.5789 42.8604 75.4993 42.8917 75.4485 42.8647C74.4711 42.3447 73.4039 42.385 72.3558 42.3511C71.2491 42.3152 70.14 42.3536 69.0388 42.1962C68.9219 42.1795 68.7829 42.2202 68.6909 42.0526C70.0743 41.317 71.5585 41.7039 73.0467 41.6055Z" fill="white"/>
<path d="M64.051 47.7918C63.7057 47.1131 63.8924 46.7545 64.5534 46.726C65.8231 46.6713 67.0875 46.8035 68.3546 46.8426C68.7185 46.8538 68.9283 47.0888 68.9451 47.4363C68.9598 47.7417 68.7564 47.9966 68.4618 48.0052C67.0002 48.0479 65.5411 47.9782 64.051 47.7918Z" fill="white"/>
</svg>
